<svg xmlns="http://www.w3.org/2000/svg" xmlns:xlink="http://www.w3.org/1999/xlink" width="227pt" height="151pt" viewBox="0 0 226.5 151"><g id="graph0" class="graph" transform="scale(1 1) rotate(0) translate(4 147)"><title>includes/spic-prj-api/Animator.hpp</title><g id="node1" class="node"><title>Node1</title><g id="a_node1"><a><polygon fill="#bfbfbf" stroke="#000" points="34.5 -112.5 34.5 -142.5 137.5 -142.5 137.5 -112.5 34.5 -112.5"/><text x="42.5" y="-130.5" font-family="Helvetica,sans-Serif" font-size="10" text-anchor="start">includes/spic-prj-api</text><text x="86" y="-119.5" font-family="Helvetica,sans-Serif" font-size="10" text-anchor="middle">/Animator.hpp</text></a></g></g><g id="node2" class="node"><title>Node2</title><g id="a_node2"><a target="_top" xlink:href="Component_8hpp.html"><polygon fill="none" stroke="#000" points="0 -.5 0 -19.5 84 -19.5 84 -.5 0 -.5"/><text x="42" y="-7.5" font-family="Helvetica,sans-Serif" font-size="10" text-anchor="middle">Component.hpp</text></a></g></g><g id="edge1" class="edge"><title>Node1-&gt;Node2</title><path fill="none" stroke="#191970" d="M80.6,-112.34C72.64,-91.43 57.74,-52.31 48.96,-29.27"/><polygon fill="#191970" stroke="#191970" points="52.13 -27.77 45.3 -19.67 45.59 -30.26 52.13 -27.77"/></g><g id="node3" class="node"><title>Node3</title><g id="a_node3"><a target="_top" xlink:href="Sprite_8hpp.html"><polygon fill="none" stroke="#000" points="93 -56.5 93 -75.5 153 -75.5 153 -56.5 93 -56.5"/><text x="123" y="-63.5" font-family="Helvetica,sans-Serif" font-size="10" text-anchor="middle">Sprite.hpp</text></a></g></g><g id="edge2" class="edge"><title>Node1-&gt;Node3</title><path fill="none" stroke="#191970" d="M94.77,-112.4C99.98,-104.02 106.63,-93.33 112.17,-84.42"/><polygon fill="#191970" stroke="#191970" points="115.31 -86 117.62 -75.66 109.36 -82.3 115.31 -86"/></g><g id="edge3" class="edge"><title>Node3-&gt;Node2</title><path fill="none" stroke="#191970" d="M109.99,-56.32C97.47,-47.98 78.32,-35.21 63.53,-25.35"/><polygon fill="#191970" stroke="#191970" points="65.24 -22.29 54.98 -19.65 61.36 -28.11 65.24 -22.29"/></g><g id="node4" class="node"><title>Node4</title><g id="a_node4"><a target="_top" xlink:href="Color_8hpp.html"><polygon fill="none" stroke="#000" points="102.5 -.5 102.5 -19.5 159.5 -19.5 159.5 -.5 102.5 -.5"/><text x="131" y="-7.5" font-family="Helvetica,sans-Serif" font-size="10" text-anchor="middle">Color.hpp</text></a></g></g><g id="edge4" class="edge"><title>Node3-&gt;Node4</title><path fill="none" stroke="#191970" d="M124.32,-56.08C125.38,-48.93 126.91,-38.64 128.23,-29.69"/><polygon fill="#191970" stroke="#191970" points="131.7 -30.16 129.7 -19.75 124.78 -29.13 131.7 -30.16"/></g><g id="node5" class="node"><title>Node5</title><g id="a_node5"><a><polygon fill="none" stroke="#bfbfbf" points="177.5 -.5 177.5 -19.5 218.5 -19.5 218.5 -.5 177.5 -.5"/><text x="198" y="-7.5" font-family="Helvetica,sans-Serif" font-size="10" text-anchor="middle">string</text></a></g></g><g id="edge5" class="edge"><title>Node3-&gt;Node5</title><path fill="none" stroke="#191970" d="M135.05,-56.32C146.46,-48.11 163.83,-35.6 177.43,-25.81"/><polygon fill="#191970" stroke="#191970" points="179.66 -28.52 185.73 -19.83 175.57 -22.84 179.66 -28.52"/></g></g></svg>