<svg xmlns="http://www.w3.org/2000/svg" xmlns:xlink="http://www.w3.org/1999/xlink" width="152pt" height="95pt" viewBox="0 0 151.5 95"><g id="graph0" class="graph" transform="scale(1 1) rotate(0) translate(4 91)"><title>includes/spic-prj-api/AudioSource.hpp</title><g id="node1" class="node"><title>Node1</title><g id="a_node1"><a><polygon fill="#bfbfbf" stroke="#000" points="30.5 -56.5 30.5 -86.5 133.5 -86.5 133.5 -56.5 30.5 -56.5"/><text x="38.5" y="-74.5" font-family="Helvetica,sans-Serif" font-size="10" text-anchor="start">includes/spic-prj-api</text><text x="82" y="-63.5" font-family="Helvetica,sans-Serif" font-size="10" text-anchor="middle">/AudioSource.hpp</text></a></g></g><g id="node2" class="node"><title>Node2</title><g id="a_node2"><a target="_top" xlink:href="Component_8hpp.html"><polygon fill="none" stroke="#000" points="0 -.5 0 -19.5 84 -19.5 84 -.5 0 -.5"/><text x="42" y="-7.5" font-family="Helvetica,sans-Serif" font-size="10" text-anchor="middle">Component.hpp</text></a></g></g><g id="edge1" class="edge"><title>Node1-&gt;Node2</title><path fill="none" stroke="#191970" d="M72.52,-56.4C66.83,-47.93 59.55,-37.1 53.52,-28.14"/><polygon fill="#191970" stroke="#191970" points="56.3 -26 47.82 -19.66 50.49 -29.91 56.3 -26"/></g><g id="node3" class="node"><title>Node3</title><g id="a_node3"><a><polygon fill="none" stroke="#bfbfbf" points="102.5 -.5 102.5 -19.5 143.5 -19.5 143.5 -.5 102.5 -.5"/><text x="123" y="-7.5" font-family="Helvetica,sans-Serif" font-size="10" text-anchor="middle">string</text></a></g></g><g id="edge2" class="edge"><title>Node1-&gt;Node3</title><path fill="none" stroke="#191970" d="M91.72,-56.4C97.55,-47.93 105.02,-37.1 111.19,-28.14"/><polygon fill="#191970" stroke="#191970" points="114.24 -29.88 117.03 -19.66 108.48 -25.91 114.24 -29.88"/></g></g></svg>