<svg xmlns="http://www.w3.org/2000/svg" xmlns:xlink="http://www.w3.org/1999/xlink" width="168" height="151pt" viewBox="0 0 126 151"><g id="graph0" class="graph" transform="scale(1 1) rotate(0) translate(4 147)"><title>includes/spic-prj-api/BehaviourScript.hpp</title><g id="node1" class="node"><title>Node1</title><g id="a_node1"><a><polygon fill="#bfbfbf" stroke="#000" points="0 -112.5 0 -142.5 107 -142.5 107 -112.5 0 -112.5"/><text x="8" y="-130.5" font-family="Helvetica,sans-Serif" font-size="10" text-anchor="start">includes/spic-prj-api</text><text x="53.5" y="-119.5" font-family="Helvetica,sans-Serif" font-size="10" text-anchor="middle">/BehaviourScript.hpp</text></a></g></g><g id="node2" class="node"><title>Node2</title><g id="a_node2"><a target="_top" xlink:href="Component_8hpp.html"><polygon fill="none" stroke="#000" points="11.5 -.5 11.5 -19.5 95.5 -19.5 95.5 -.5 11.5 -.5"/><text x="53.5" y="-7.5" font-family="Helvetica,sans-Serif" font-size="10" text-anchor="middle">Component.hpp</text></a></g></g><g id="edge1" class="edge"><title>Node1-&gt;Node2</title><path fill="none" stroke="#191970" d="M48.53,-112.24C44.19,-98.03 38.94,-75.57 41.5,-56 42.66,-47.18 45.03,-37.63 47.37,-29.61"/><polygon fill="#191970" stroke="#191970" points="50.79 -30.42 50.41 -19.83 44.1 -28.34 50.79 -30.42"/></g><g id="node3" class="node"><title>Node3</title><g id="a_node3"><a target="_top" xlink:href="Collider_8hpp.html"><polygon fill="none" stroke="#000" points="51 -56.5 51 -75.5 118 -75.5 118 -56.5 51 -56.5"/><text x="84.5" y="-63.5" font-family="Helvetica,sans-Serif" font-size="10" text-anchor="middle">Collider.hpp</text></a></g></g><g id="edge2" class="edge"><title>Node1-&gt;Node3</title><path fill="none" stroke="#191970" d="M60.85,-112.4C65.17,-104.11 70.67,-93.55 75.27,-84.71"/><polygon fill="#191970" stroke="#191970" points="78.47 -86.14 79.99 -75.66 72.26 -82.91 78.47 -86.14"/></g><g id="edge3" class="edge"><title>Node3-&gt;Node2</title><path fill="none" stroke="#191970" d="M79.38,-56.08C75.09,-48.61 68.84,-37.72 63.56,-28.52"/><polygon fill="#191970" stroke="#191970" points="66.54 -26.68 58.52 -19.75 60.47 -30.17 66.54 -26.68"/></g></g></svg>