<svg xmlns="http://www.w3.org/2000/svg" xmlns:xlink="http://www.w3.org/1999/xlink" width="148" height="151pt" viewBox="0 0 111 151"><g id="graph0" class="graph" transform="scale(1 1) rotate(0) translate(4 147)"><title>includes/spic-prj-api/CircleCollider.hpp</title><g id="node1" class="node"><title>Node1</title><g id="a_node1"><a><polygon fill="#bfbfbf" stroke="#000" points="0 -112.5 0 -142.5 103 -142.5 103 -112.5 0 -112.5"/><text x="8" y="-130.5" font-family="Helvetica,sans-Serif" font-size="10" text-anchor="start">includes/spic-prj-api</text><text x="51.5" y="-119.5" font-family="Helvetica,sans-Serif" font-size="10" text-anchor="middle">/CircleCollider.hpp</text></a></g></g><g id="node2" class="node"><title>Node2</title><g id="a_node2"><a target="_top" xlink:href="Collider_8hpp.html"><polygon fill="none" stroke="#000" points="18 -56.5 18 -75.5 85 -75.5 85 -56.5 18 -56.5"/><text x="51.5" y="-63.5" font-family="Helvetica,sans-Serif" font-size="10" text-anchor="middle">Collider.hpp</text></a></g></g><g id="edge1" class="edge"><title>Node1-&gt;Node2</title><path fill="none" stroke="#191970" d="M51.5,-112.4C51.5,-104.47 51.5,-94.46 51.5,-85.86"/><polygon fill="#191970" stroke="#191970" points="55 -85.66 51.5 -75.66 48 -85.66 55 -85.66"/></g><g id="node3" class="node"><title>Node3</title><g id="a_node3"><a target="_top" xlink:href="Component_8hpp.html"><polygon fill="none" stroke="#000" points="9.5 -.5 9.5 -19.5 93.5 -19.5 93.5 -.5 9.5 -.5"/><text x="51.5" y="-7.5" font-family="Helvetica,sans-Serif" font-size="10" text-anchor="middle">Component.hpp</text></a></g></g><g id="edge2" class="edge"><title>Node2-&gt;Node3</title><path fill="none" stroke="#191970" d="M51.5,-56.08C51.5,-49.01 51.5,-38.86 51.5,-29.99"/><polygon fill="#191970" stroke="#191970" points="55 -29.75 51.5 -19.75 48 -29.75 55 -29.75"/></g></g></svg>