<svg xmlns="http://www.w3.org/2000/svg" xmlns:xlink="http://www.w3.org/1999/xlink" id="main" onload="init(evt)" version="1.1" xml:space="preserve"><style type="text/css">.edge:hover path{stroke:red}.edge:hover polygon{stroke:red;fill:red}</style><script type="text/javascript"><![CDATA[
var edges = document.getElementsByTagName('g');
if (edges && edges.length) {
  for (var i=0;i<edges.length;i++) {
    if (edges[i].id.substr(0,4)=='edge') {
      edges[i].setAttribute('class','edge');
    }
  }
}
]]></script><defs><circle id="rim" cx="0" cy="0" r="7"/><circle id="rim2" cx="0" cy="0" r="3.5"/><g id="zoomPlus"><use fill="#404040" xlink:href="#rim"><set attributeName="fill" begin="zoomplus.mouseover" end="zoomplus.mouseout" to="#808080"/></use><path fill="none" stroke="#fff" stroke-width="1.5" d="M-4,0h8M0,-4v8" pointer-events="none"/></g><g id="zoomMin"><use fill="#404040" xlink:href="#rim"><set attributeName="fill" begin="zoomminus.mouseover" end="zoomminus.mouseout" to="#808080"/></use><path fill="none" stroke="#fff" stroke-width="1.5" d="M-4,0h8" pointer-events="none"/></g><g id="dirArrow"><path fill="none" stroke="#fff" stroke-width="1.5" d="M0,-3.0v7 M-2.5,-0.5L0,-3.0L2.5,-0.5"/></g><g id="resetDef"><use fill="#404040" xlink:href="#rim2"><set attributeName="fill" begin="reset.mouseover" end="reset.mouseout" to="#808080"/></use></g></defs><script type="text/javascript">var viewWidth = 231; var viewHeight = 848; var sectionId = &apos;dynsection-0&apos;;</script><script xlink:href="svgpan.js"/><svg id="graph" class="graph"><g id="viewport"><title>spic::GameObject</title><g id="node1" class="node"><title>Node1</title><g id="a_node1"><a xlink:title="Any object which should be represented on screen."><polygon fill="#bfbfbf" stroke="#000" points="0 -210.5 0 -839.5 180 -839.5 180 -210.5 0 -210.5"/><text x="90" y="-827.5" font-family="Helvetica,sans-Serif" font-size="10" text-anchor="middle">spic::GameObject</text><polyline fill="none" stroke="#000" points="0 -820.5 180 -820.5"/><polyline fill="none" stroke="#000" points="0 -801.5 180 -801.5"/><text x="8" y="-789.5" font-family="Helvetica,sans-Serif" font-size="10" text-anchor="start">+ GameObject(const std</text><text x="8" y="-778.5" font-family="Helvetica,sans-Serif" font-size="10" text-anchor="start">::string &amp;name)</text><text x="8" y="-767.5" font-family="Helvetica,sans-Serif" font-size="10" text-anchor="start">+ operator bool()</text><text x="8" y="-756.5" font-family="Helvetica,sans-Serif" font-size="10" text-anchor="start">+ bool operator!=(const</text><text x="8" y="-745.5" font-family="Helvetica,sans-Serif" font-size="10" text-anchor="start">GameObject &amp;other)</text><text x="8" y="-734.5" font-family="Helvetica,sans-Serif" font-size="10" text-anchor="start">+ bool operator==(const</text><text x="8" y="-723.5" font-family="Helvetica,sans-Serif" font-size="10" text-anchor="start">GameObject &amp;other)</text><text x="8" y="-712.5" font-family="Helvetica,sans-Serif" font-size="10" text-anchor="start">+ void AddComponent(std</text><text x="8" y="-701.5" font-family="Helvetica,sans-Serif" font-size="10" text-anchor="start">::shared_ptr&lt; Component</text><text x="8" y="-690.5" font-family="Helvetica,sans-Serif" font-size="10" text-anchor="start">&gt; component)</text><text x="8" y="-679.5" font-family="Helvetica,sans-Serif" font-size="10" text-anchor="start">+ std::shared_ptr&lt; Component</text><text x="8" y="-668.5" font-family="Helvetica,sans-Serif" font-size="10" text-anchor="start">&gt; GetComponent() const</text><text x="8" y="-657.5" font-family="Helvetica,sans-Serif" font-size="10" text-anchor="start">+ std::shared_ptr&lt; Component</text><text x="8" y="-646.5" font-family="Helvetica,sans-Serif" font-size="10" text-anchor="start">&gt; GetComponentInChildren</text><text x="8" y="-635.5" font-family="Helvetica,sans-Serif" font-size="10" text-anchor="start">() const</text><text x="8" y="-624.5" font-family="Helvetica,sans-Serif" font-size="10" text-anchor="start">+ std::shared_ptr&lt; Component</text><text x="8" y="-613.5" font-family="Helvetica,sans-Serif" font-size="10" text-anchor="start">&gt; GetComponentInParent</text><text x="8" y="-602.5" font-family="Helvetica,sans-Serif" font-size="10" text-anchor="start">() const</text><text x="8" y="-591.5" font-family="Helvetica,sans-Serif" font-size="10" text-anchor="start">+ std::vector&lt; std::shared</text><text x="8" y="-580.5" font-family="Helvetica,sans-Serif" font-size="10" text-anchor="start">_ptr&lt; Component &gt; &gt; GetComponents</text><text x="8" y="-569.5" font-family="Helvetica,sans-Serif" font-size="10" text-anchor="start">() const</text><text x="8" y="-558.5" font-family="Helvetica,sans-Serif" font-size="10" text-anchor="start">+ std::vector&lt; std::shared</text><text x="8" y="-547.5" font-family="Helvetica,sans-Serif" font-size="10" text-anchor="start">_ptr&lt; Component &gt; &gt; GetComponents</text><text x="8" y="-536.5" font-family="Helvetica,sans-Serif" font-size="10" text-anchor="start">InChildren() const</text><text x="8" y="-525.5" font-family="Helvetica,sans-Serif" font-size="10" text-anchor="start">+ std::vector&lt; std::shared</text><text x="8" y="-514.5" font-family="Helvetica,sans-Serif" font-size="10" text-anchor="start">_ptr&lt; Component &gt; &gt; GetComponents</text><text x="8" y="-503.5" font-family="Helvetica,sans-Serif" font-size="10" text-anchor="start">InParent() const</text><text x="8" y="-492.5" font-family="Helvetica,sans-Serif" font-size="10" text-anchor="start">+ void Active(bool flag)</text><text x="8" y="-481.5" font-family="Helvetica,sans-Serif" font-size="10" text-anchor="start">+ bool Active() const</text><text x="8" y="-470.5" font-family="Helvetica,sans-Serif" font-size="10" text-anchor="start">+ bool IsActiveInWorld</text><text x="8" y="-459.5" font-family="Helvetica,sans-Serif" font-size="10" text-anchor="start">() const</text><text x="8" y="-448.5" font-family="Helvetica,sans-Serif" font-size="10" text-anchor="start">+ static std::shared</text><text x="8" y="-437.5" font-family="Helvetica,sans-Serif" font-size="10" text-anchor="start">_ptr&lt; GameObject &gt; Find</text><text x="8" y="-426.5" font-family="Helvetica,sans-Serif" font-size="10" text-anchor="start">(const std::string &amp;name)</text><text x="8" y="-415.5" font-family="Helvetica,sans-Serif" font-size="10" text-anchor="start">+ static std::vector</text><text x="8" y="-404.5" font-family="Helvetica,sans-Serif" font-size="10" text-anchor="start">&lt; std::shared_ptr&lt; GameObject</text><text x="8" y="-393.5" font-family="Helvetica,sans-Serif" font-size="10" text-anchor="start">&gt; &gt; FindGameObjectsWithTag</text><text x="8" y="-382.5" font-family="Helvetica,sans-Serif" font-size="10" text-anchor="start">(const std::string &amp;tag)</text><text x="8" y="-371.5" font-family="Helvetica,sans-Serif" font-size="10" text-anchor="start">+ static std::shared</text><text x="8" y="-360.5" font-family="Helvetica,sans-Serif" font-size="10" text-anchor="start">_ptr&lt; GameObject &gt; FindWith</text><text x="8" y="-349.5" font-family="Helvetica,sans-Serif" font-size="10" text-anchor="start">Tag(const std::string &amp;tag)</text><text x="8" y="-338.5" font-family="Helvetica,sans-Serif" font-size="10" text-anchor="start">+ static std::shared</text><text x="8" y="-327.5" font-family="Helvetica,sans-Serif" font-size="10" text-anchor="start">_ptr&lt; GameObject &gt; FindObject</text><text x="8" y="-316.5" font-family="Helvetica,sans-Serif" font-size="10" text-anchor="start">OfType(bool includeInactive=false)</text><text x="8" y="-305.5" font-family="Helvetica,sans-Serif" font-size="10" text-anchor="start">+ static std::vector</text><text x="8" y="-294.5" font-family="Helvetica,sans-Serif" font-size="10" text-anchor="start">&lt; std::shared_ptr&lt; GameObject</text><text x="8" y="-283.5" font-family="Helvetica,sans-Serif" font-size="10" text-anchor="start">&gt; &gt; FindObjectsOfType(bool</text><text x="8" y="-272.5" font-family="Helvetica,sans-Serif" font-size="10" text-anchor="start">includeInactive=false)</text><text x="8" y="-261.5" font-family="Helvetica,sans-Serif" font-size="10" text-anchor="start">+ static void Destroy</text><text x="8" y="-250.5" font-family="Helvetica,sans-Serif" font-size="10" text-anchor="start">(std::shared_ptr&lt; GameObject</text><text x="8" y="-239.5" font-family="Helvetica,sans-Serif" font-size="10" text-anchor="start">&gt; obj)</text><text x="8" y="-228.5" font-family="Helvetica,sans-Serif" font-size="10" text-anchor="start">+ static void Destroy</text><text x="8" y="-217.5" font-family="Helvetica,sans-Serif" font-size="10" text-anchor="start">(Component *obj)</text></a></g></g><g id="node2" class="node"><title>Node2</title><g id="a_node2"><a target="_top" xlink:href="classspic_1_1Camera.html" xlink:title="Class representing a point of view towards the game scene. @spicapi."><polygon fill="none" stroke="#000" points="6.5 -116.5 6.5 -173.5 79.5 -173.5 79.5 -116.5 6.5 -116.5"/><text x="43" y="-161.5" font-family="Helvetica,sans-Serif" font-size="10" text-anchor="middle">spic::Camera</text><polyline fill="none" stroke="#000" points="6.5 -154.5 79.5 -154.5"/><polyline fill="none" stroke="#000" points="6.5 -135.5 79.5 -135.5"/></a></g></g><g id="edge1" class="edge"><title>Node1-&gt;Node2</title><path fill="none" stroke="#191970" d="M49.7,-199.92C48.48,-190.04 47.38,-181.2 46.44,-173.67"/><polygon fill="none" stroke="#191970" points="46.27 -200.63 50.97 -210.12 53.21 -199.77 46.27 -200.63"/></g><g id="node3" class="node"><title>Node3</title><g id="a_node3"><a target="_top" xlink:href="classspic_1_1UIObject.html" xlink:title="Base class for a user interface object like Button or Text. @spicapi."><polygon fill="none" stroke="#000" points="98 -116.5 98 -173.5 176 -173.5 176 -116.5 98 -116.5"/><text x="137" y="-161.5" font-family="Helvetica,sans-Serif" font-size="10" text-anchor="middle">spic::UIObject</text><polyline fill="none" stroke="#000" points="98 -154.5 176 -154.5"/><polyline fill="none" stroke="#000" points="98 -135.5 176 -135.5"/></a></g></g><g id="edge2" class="edge"><title>Node1-&gt;Node3</title><path fill="none" stroke="#191970" d="M130.3,-199.92C131.52,-190.04 132.62,-181.2 133.56,-173.67"/><polygon fill="none" stroke="#191970" points="126.79 -199.77 129.03 -210.12 133.73 -200.63 126.79 -199.77"/></g><g id="node4" class="node"><title>Node4</title><g id="a_node4"><a target="_top" xlink:href="classspic_1_1Button.html" xlink:title="Instances of this class are clickable user interface items."><polygon fill="none" stroke="#000" points="11.5 -.5 11.5 -79.5 146.5 -79.5 146.5 -.5 11.5 -.5"/><text x="79" y="-67.5" font-family="Helvetica,sans-Serif" font-size="10" text-anchor="middle">spic::Button</text><polyline fill="none" stroke="#000" points="11.5 -60.5 146.5 -60.5"/><polyline fill="none" stroke="#000" points="11.5 -41.5 146.5 -41.5"/><text x="19.5" y="-29.5" font-family="Helvetica,sans-Serif" font-size="10" text-anchor="start">+ void Click()</text><text x="19.5" y="-18.5" font-family="Helvetica,sans-Serif" font-size="10" text-anchor="start">+ void OnClick(std::function</text><text x="19.5" y="-7.5" font-family="Helvetica,sans-Serif" font-size="10" text-anchor="start">&lt; void()&gt; callback)</text></a></g></g><g id="edge3" class="edge"><title>Node3-&gt;Node4</title><path fill="none" stroke="#191970" d="M116.49,-107.58C111.37,-98.49 105.87,-88.71 100.69,-79.52"/><polygon fill="none" stroke="#191970" points="113.5 -109.4 121.46 -116.4 119.6 -105.97 113.5 -109.4"/></g><g id="node5" class="node"><title>Node5</title><g id="a_node5"><a target="_top" xlink:href="classspic_1_1Text.html" xlink:title="Class representing a piece of text which can be rendered. @spicapi."><polygon fill="none" stroke="#000" points="165 -11.5 165 -68.5 223 -68.5 223 -11.5 165 -11.5"/><text x="194" y="-56.5" font-family="Helvetica,sans-Serif" font-size="10" text-anchor="middle">spic::Text</text><polyline fill="none" stroke="#000" points="165 -49.5 223 -49.5"/><polyline fill="none" stroke="#000" points="165 -30.5 223 -30.5"/></a></g></g><g id="edge4" class="edge"><title>Node3-&gt;Node5</title><path fill="none" stroke="#191970" d="M157.25,-107.4C164.31,-94.66 172.1,-80.58 178.68,-68.68"/><polygon fill="none" stroke="#191970" points="154.05 -105.95 152.27 -116.4 160.18 -109.34 154.05 -105.95"/></g></g></svg><g id="navigator" fill="#404254" transform="translate(0 0)"><rect width="60" height="60" x="0" y="0" fill="#f2f5e9" fill-opacity=".5" stroke="#606060" stroke-width=".5"/><use id="zoomplus" x="17" y="9" onmousedown="handleZoom(evt,'in')" xlink:href="#zoomPlus"/><use id="zoomminus" x="42" y="9" onmousedown="handleZoom(evt,'out')" xlink:href="#zoomMin"/><use id="reset" x="30" y="36" onmousedown="handleReset()" xlink:href="#resetDef"/><g id="arrowUp" onmousedown="handlePan(0,-1)" transform="translate(30 24)" xlink:href="#dirArrow"><use fill="#404040" xlink:href="#rim"><set attributeName="fill" begin="arrowUp.mouseover" end="arrowUp.mouseout" to="#808080"/></use><path fill="none" stroke="#fff" stroke-width="1.5" d="M0,-3.0v7 M-2.5,-0.5L0,-3.0L2.5,-0.5"/></g><g id="arrowRight" onmousedown="handlePan(1,0)" transform="rotate(90) translate(36 -43)" xlink:href="#dirArrow"><use fill="#404040" xlink:href="#rim"><set attributeName="fill" begin="arrowRight.mouseover" end="arrowRight.mouseout" to="#808080"/></use><path fill="none" stroke="#fff" stroke-width="1.5" d="M0,-3.0v7 M-2.5,-0.5L0,-3.0L2.5,-0.5"/></g><g id="arrowDown" onmousedown="handlePan(0,1)" transform="rotate(180) translate(-30 -48)" xlink:href="#dirArrow"><use fill="#404040" xlink:href="#rim"><set attributeName="fill" begin="arrowDown.mouseover" end="arrowDown.mouseout" to="#808080"/></use><path fill="none" stroke="#fff" stroke-width="1.5" d="M0,-3.0v7 M-2.5,-0.5L0,-3.0L2.5,-0.5"/></g><g id="arrowLeft" onmousedown="handlePan(-1,0)" transform="rotate(270) translate(-36 17)" xlink:href="#dirArrow"><use fill="#404040" xlink:href="#rim"><set attributeName="fill" begin="arrowLeft.mouseover" end="arrowLeft.mouseout" to="#808080"/></use><path fill="none" stroke="#fff" stroke-width="1.5" d="M0,-3.0v7 M-2.5,-0.5L0,-3.0L2.5,-0.5"/></g></g><svg width="100%" height="30" preserveAspectRatio="xMaxYMin meet" viewBox="0 0 15 15"><g id="arrow_out" transform="scale(0.3 0.3)"><a target="_base" xlink:href="classspic_1_1GameObject__inherit__graph_org.svg"><rect id="button" width="38" height="38" x="6" y="6" fill="#f2f5e9" fill-opacity=".5" stroke="#606060" stroke-width="1" rx="5" ry="5"/><path id="arrow" d="M 11.500037,31.436501 C 11.940474,20.09759 22.043105,11.32322 32.158766,21.979434 L 37.068811,17.246167 C 37.068811,17.246167 37.088388,32 37.088388,32 L 22.160133,31.978069 C 22.160133,31.978069 26.997745,27.140456 26.997745,27.140456 C 18.528582,18.264221 13.291696,25.230495 11.500037,31.436501 z" style="fill:#404040"/></a></g></svg></svg>