<svg xmlns="http://www.w3.org/2000/svg" xmlns:xlink="http://www.w3.org/1999/xlink" width="157pt" height="331pt" viewBox="0 0 157 331"><g id="graph0" class="graph" transform="scale(1 1) rotate(0) translate(4 327)"><title>spic::BoxCollider</title><g id="node1" class="node"><title>Node1</title><g id="a_node1"><a xlink:title="A collider which represents a rectangular collision area."><polygon fill="#bfbfbf" stroke="#000" points="0 -.5 0 -101.5 149 -101.5 149 -.5 0 -.5"/><text x="74.5" y="-89.5" font-family="Helvetica,sans-Serif" font-size="10" text-anchor="middle">spic::BoxCollider</text><polyline fill="none" stroke="#000" points="0 -82.5 149 -82.5"/><polyline fill="none" stroke="#000" points="0 -63.5 149 -63.5"/><text x="8" y="-51.5" font-family="Helvetica,sans-Serif" font-size="10" text-anchor="start">+ double Width() const</text><text x="8" y="-40.5" font-family="Helvetica,sans-Serif" font-size="10" text-anchor="start">+ void Width(double newWidth)</text><text x="8" y="-29.5" font-family="Helvetica,sans-Serif" font-size="10" text-anchor="start">+ double Height() const</text><text x="8" y="-18.5" font-family="Helvetica,sans-Serif" font-size="10" text-anchor="start">+ void Height(double</text><text x="8" y="-7.5" font-family="Helvetica,sans-Serif" font-size="10" text-anchor="start">newHeight)</text></a></g></g><g id="node2" class="node"><title>Node2</title><g id="a_node2"><a target="_top" xlink:href="classspic_1_1Collider.html" xlink:title="The base class for all colliders. @spicapi."><polygon fill="none" stroke="#000" points="39 -138.5 39 -195.5 110 -195.5 110 -138.5 39 -138.5"/><text x="74.5" y="-183.5" font-family="Helvetica,sans-Serif" font-size="10" text-anchor="middle">spic::Collider</text><polyline fill="none" stroke="#000" points="39 -176.5 110 -176.5"/><polyline fill="none" stroke="#000" points="39 -157.5 110 -157.5"/></a></g></g><g id="edge1" class="edge"><title>Node2-&gt;Node1</title><path fill="none" stroke="#191970" d="M74.5,-128.35C74.5,-119.8 74.5,-110.58 74.5,-101.61"/><polygon fill="none" stroke="#191970" points="71 -128.4 74.5 -138.4 78 -128.4 71 -128.4"/></g><g id="node3" class="node"><title>Node3</title><g id="a_node3"><a target="_top" xlink:href="classspic_1_1Component.html" xlink:title="Base class for all components."><polygon fill="none" stroke="#000" points="17.5 -232.5 17.5 -322.5 131.5 -322.5 131.5 -232.5 17.5 -232.5"/><text x="74.5" y="-310.5" font-family="Helvetica,sans-Serif" font-size="10" text-anchor="middle">spic::Component</text><polyline fill="none" stroke="#000" points="17.5 -303.5 131.5 -303.5"/><polyline fill="none" stroke="#000" points="17.5 -284.5 131.5 -284.5"/><text x="25.5" y="-272.5" font-family="Helvetica,sans-Serif" font-size="10" text-anchor="start">+ virtual ~Component</text><text x="25.5" y="-261.5" font-family="Helvetica,sans-Serif" font-size="10" text-anchor="start">()=default</text><text x="25.5" y="-250.5" font-family="Helvetica,sans-Serif" font-size="10" text-anchor="start">+ bool Active() const</text><text x="25.5" y="-239.5" font-family="Helvetica,sans-Serif" font-size="10" text-anchor="start">+ void Active(bool flag)</text></a></g></g><g id="edge2" class="edge"><title>Node3-&gt;Node2</title><path fill="none" stroke="#191970" d="M74.5,-222.35C74.5,-213.07 74.5,-203.79 74.5,-195.59"/><polygon fill="none" stroke="#191970" points="71 -222.37 74.5 -232.37 78 -222.37 71 -222.37"/></g></g></svg>