<svg xmlns="http://www.w3.org/2000/svg" xmlns:xlink="http://www.w3.org/1999/xlink" width="122pt" height="272" viewBox="0 0 122 204"><g id="graph0" class="graph" transform="scale(1 1) rotate(0) translate(4 200)"><title>spic::RigidBody</title><g id="node1" class="node"><title>Node1</title><g id="a_node1"><a xlink:title="A component representing a rigid body."><polygon fill="#bfbfbf" stroke="#000" points="0 -.5 0 -68.5 114 -68.5 114 -.5 0 -.5"/><text x="57" y="-56.5" font-family="Helvetica,sans-Serif" font-size="10" text-anchor="middle">spic::RigidBody</text><polyline fill="none" stroke="#000" points="0 -49.5 114 -49.5"/><polyline fill="none" stroke="#000" points="0 -30.5 114 -30.5"/><text x="8" y="-18.5" font-family="Helvetica,sans-Serif" font-size="10" text-anchor="start">+ void AddForce(const</text><text x="8" y="-7.5" font-family="Helvetica,sans-Serif" font-size="10" text-anchor="start">Point &amp;forceDirection)</text></a></g></g><g id="node2" class="node"><title>Node2</title><g id="a_node2"><a target="_top" xlink:href="classspic_1_1Component.html" xlink:title="Base class for all components."><polygon fill="none" stroke="#000" points="0 -105.5 0 -195.5 114 -195.5 114 -105.5 0 -105.5"/><text x="57" y="-183.5" font-family="Helvetica,sans-Serif" font-size="10" text-anchor="middle">spic::Component</text><polyline fill="none" stroke="#000" points="0 -176.5 114 -176.5"/><polyline fill="none" stroke="#000" points="0 -157.5 114 -157.5"/><text x="8" y="-145.5" font-family="Helvetica,sans-Serif" font-size="10" text-anchor="start">+ virtual ~Component</text><text x="8" y="-134.5" font-family="Helvetica,sans-Serif" font-size="10" text-anchor="start">()=default</text><text x="8" y="-123.5" font-family="Helvetica,sans-Serif" font-size="10" text-anchor="start">+ bool Active() const</text><text x="8" y="-112.5" font-family="Helvetica,sans-Serif" font-size="10" text-anchor="start">+ void Active(bool flag)</text></a></g></g><g id="edge1" class="edge"><title>Node2-&gt;Node1</title><path fill="none" stroke="#191970" d="M57,-95.32C57,-86.28 57,-77.16 57,-68.85"/><polygon fill="none" stroke="#191970" points="53.5 -95.42 57 -105.42 60.5 -95.42 53.5 -95.42"/></g></g></svg>