<svg xmlns="http://www.w3.org/2000/svg" xmlns:xlink="http://www.w3.org/1999/xlink" width="172" height="272" viewBox="0 0 129 204"><g id="graph0" class="graph" transform="scale(1 1) rotate(0) translate(4 200)"><title>spic::AudioSource</title><g id="node1" class="node"><title>Node1</title><g id="a_node1"><a xlink:title="Component which can play audio."><polygon fill="#bfbfbf" stroke="#000" points="0 -.5 0 -68.5 121 -68.5 121 -.5 0 -.5"/><text x="60.5" y="-56.5" font-family="Helvetica,sans-Serif" font-size="10" text-anchor="middle">spic::AudioSource</text><polyline fill="none" stroke="#000" points="0 -49.5 121 -49.5"/><polyline fill="none" stroke="#000" points="0 -30.5 121 -30.5"/><text x="8" y="-18.5" font-family="Helvetica,sans-Serif" font-size="10" text-anchor="start">+ void Play(bool looping)</text><text x="8" y="-7.5" font-family="Helvetica,sans-Serif" font-size="10" text-anchor="start">+ void Stop()</text></a></g></g><g id="node2" class="node"><title>Node2</title><g id="a_node2"><a target="_top" xlink:href="classspic_1_1Component.html" xlink:title="Base class for all components."><polygon fill="none" stroke="#000" points="3.5 -105.5 3.5 -195.5 117.5 -195.5 117.5 -105.5 3.5 -105.5"/><text x="60.5" y="-183.5" font-family="Helvetica,sans-Serif" font-size="10" text-anchor="middle">spic::Component</text><polyline fill="none" stroke="#000" points="3.5 -176.5 117.5 -176.5"/><polyline fill="none" stroke="#000" points="3.5 -157.5 117.5 -157.5"/><text x="11.5" y="-145.5" font-family="Helvetica,sans-Serif" font-size="10" text-anchor="start">+ virtual ~Component</text><text x="11.5" y="-134.5" font-family="Helvetica,sans-Serif" font-size="10" text-anchor="start">()=default</text><text x="11.5" y="-123.5" font-family="Helvetica,sans-Serif" font-size="10" text-anchor="start">+ bool Active() const</text><text x="11.5" y="-112.5" font-family="Helvetica,sans-Serif" font-size="10" text-anchor="start">+ void Active(bool flag)</text></a></g></g><g id="edge1" class="edge"><title>Node2-&gt;Node1</title><path fill="none" stroke="#191970" d="M60.5,-95.32C60.5,-86.28 60.5,-77.16 60.5,-68.85"/><polygon fill="none" stroke="#191970" points="57 -95.42 60.5 -105.42 64 -95.42 57 -95.42"/></g></g></svg>