<svg xmlns="http://www.w3.org/2000/svg" xmlns:xlink="http://www.w3.org/1999/xlink" width="392" height="331pt" viewBox="0 0 293.5 331"><g id="graph0" class="graph" transform="scale(1 1) rotate(0) translate(4 327)"><title>spic::Collider</title><g id="node1" class="node"><title>Node1</title><g id="a_node1"><a xlink:title="The base class for all colliders. @spicapi."><polygon fill="#bfbfbf" stroke="#000" points="115 -138.5 115 -195.5 186 -195.5 186 -138.5 115 -138.5"/><text x="150.5" y="-183.5" font-family="Helvetica,sans-Serif" font-size="10" text-anchor="middle">spic::Collider</text><polyline fill="none" stroke="#000" points="115 -176.5 186 -176.5"/><polyline fill="none" stroke="#000" points="115 -157.5 186 -157.5"/></a></g></g><g id="node3" class="node"><title>Node3</title><g id="a_node3"><a target="_top" xlink:href="classspic_1_1BoxCollider.html" xlink:title="A collider which represents a rectangular collision area."><polygon fill="none" stroke="#000" points="0 -.5 0 -101.5 149 -101.5 149 -.5 0 -.5"/><text x="74.5" y="-89.5" font-family="Helvetica,sans-Serif" font-size="10" text-anchor="middle">spic::BoxCollider</text><polyline fill="none" stroke="#000" points="0 -82.5 149 -82.5"/><polyline fill="none" stroke="#000" points="0 -63.5 149 -63.5"/><text x="8" y="-51.5" font-family="Helvetica,sans-Serif" font-size="10" text-anchor="start">+ double Width() const</text><text x="8" y="-40.5" font-family="Helvetica,sans-Serif" font-size="10" text-anchor="start">+ void Width(double newWidth)</text><text x="8" y="-29.5" font-family="Helvetica,sans-Serif" font-size="10" text-anchor="start">+ double Height() const</text><text x="8" y="-18.5" font-family="Helvetica,sans-Serif" font-size="10" text-anchor="start">+ void Height(double</text><text x="8" y="-7.5" font-family="Helvetica,sans-Serif" font-size="10" text-anchor="start">newHeight)</text></a></g></g><g id="edge2" class="edge"><title>Node1-&gt;Node3</title><path fill="none" stroke="#191970" d="M126.53,-130.04C120.51,-121.01 113.95,-111.17 107.57,-101.61"/><polygon fill="none" stroke="#191970" points="123.64 -132.02 132.1 -138.4 129.47 -128.14 123.64 -132.02"/></g><g id="node4" class="node"><title>Node4</title><g id="a_node4"><a target="_top" xlink:href="classspic_1_1CircleCollider.html" xlink:title="A collider which represents a circular collision area."><polygon fill="none" stroke="#000" points="167.5 -11.5 167.5 -90.5 285.5 -90.5 285.5 -11.5 167.5 -11.5"/><text x="226.5" y="-78.5" font-family="Helvetica,sans-Serif" font-size="10" text-anchor="middle">spic::CircleCollider</text><polyline fill="none" stroke="#000" points="167.5 -71.5 285.5 -71.5"/><polyline fill="none" stroke="#000" points="167.5 -52.5 285.5 -52.5"/><text x="175.5" y="-40.5" font-family="Helvetica,sans-Serif" font-size="10" text-anchor="start">+ double Radius() const</text><text x="175.5" y="-29.5" font-family="Helvetica,sans-Serif" font-size="10" text-anchor="start">+ void Radius(double</text><text x="175.5" y="-18.5" font-family="Helvetica,sans-Serif" font-size="10" text-anchor="start">newRadius)</text></a></g></g><g id="edge3" class="edge"><title>Node1-&gt;Node4</title><path fill="none" stroke="#191970" d="M174.5,-130C182.87,-117.44 192.3,-103.3 200.81,-90.54"/><polygon fill="none" stroke="#191970" points="171.53 -128.14 168.9 -138.4 177.36 -132.02 171.53 -128.14"/></g><g id="node2" class="node"><title>Node2</title><g id="a_node2"><a target="_top" xlink:href="classspic_1_1Component.html" xlink:title="Base class for all components."><polygon fill="none" stroke="#000" points="93.5 -232.5 93.5 -322.5 207.5 -322.5 207.5 -232.5 93.5 -232.5"/><text x="150.5" y="-310.5" font-family="Helvetica,sans-Serif" font-size="10" text-anchor="middle">spic::Component</text><polyline fill="none" stroke="#000" points="93.5 -303.5 207.5 -303.5"/><polyline fill="none" stroke="#000" points="93.5 -284.5 207.5 -284.5"/><text x="101.5" y="-272.5" font-family="Helvetica,sans-Serif" font-size="10" text-anchor="start">+ virtual ~Component</text><text x="101.5" y="-261.5" font-family="Helvetica,sans-Serif" font-size="10" text-anchor="start">()=default</text><text x="101.5" y="-250.5" font-family="Helvetica,sans-Serif" font-size="10" text-anchor="start">+ bool Active() const</text><text x="101.5" y="-239.5" font-family="Helvetica,sans-Serif" font-size="10" text-anchor="start">+ void Active(bool flag)</text></a></g></g><g id="edge1" class="edge"><title>Node2-&gt;Node1</title><path fill="none" stroke="#191970" d="M150.5,-222.35C150.5,-213.07 150.5,-203.79 150.5,-195.59"/><polygon fill="none" stroke="#191970" points="147 -222.37 150.5 -232.37 154 -222.37 147 -222.37"/></g></g></svg>