<svg xmlns="http://www.w3.org/2000/svg" xmlns:xlink="http://www.w3.org/1999/xlink" width="168" height="412" viewBox="0 0 126 309"><g id="graph0" class="graph" transform="scale(1 1) rotate(0) translate(4 305)"><title>spic::CircleCollider</title><g id="node1" class="node"><title>Node1</title><g id="a_node1"><a xlink:title="A collider which represents a circular collision area."><polygon fill="#bfbfbf" stroke="#000" points="0 -.5 0 -79.5 118 -79.5 118 -.5 0 -.5"/><text x="59" y="-67.5" font-family="Helvetica,sans-Serif" font-size="10" text-anchor="middle">spic::CircleCollider</text><polyline fill="none" stroke="#000" points="0 -60.5 118 -60.5"/><polyline fill="none" stroke="#000" points="0 -41.5 118 -41.5"/><text x="8" y="-29.5" font-family="Helvetica,sans-Serif" font-size="10" text-anchor="start">+ double Radius() const</text><text x="8" y="-18.5" font-family="Helvetica,sans-Serif" font-size="10" text-anchor="start">+ void Radius(double</text><text x="8" y="-7.5" font-family="Helvetica,sans-Serif" font-size="10" text-anchor="start">newRadius)</text></a></g></g><g id="node2" class="node"><title>Node2</title><g id="a_node2"><a target="_top" xlink:href="classspic_1_1Collider.html" xlink:title="The base class for all colliders. @spicapi."><polygon fill="none" stroke="#000" points="23.5 -116.5 23.5 -173.5 94.5 -173.5 94.5 -116.5 23.5 -116.5"/><text x="59" y="-161.5" font-family="Helvetica,sans-Serif" font-size="10" text-anchor="middle">spic::Collider</text><polyline fill="none" stroke="#000" points="23.5 -154.5 94.5 -154.5"/><polyline fill="none" stroke="#000" points="23.5 -135.5 94.5 -135.5"/></a></g></g><g id="edge1" class="edge"><title>Node2-&gt;Node1</title><path fill="none" stroke="#191970" d="M59,-106.16C59,-97.47 59,-88.23 59,-79.52"/><polygon fill="none" stroke="#191970" points="55.5 -106.4 59 -116.4 62.5 -106.4 55.5 -106.4"/></g><g id="node3" class="node"><title>Node3</title><g id="a_node3"><a target="_top" xlink:href="classspic_1_1Component.html" xlink:title="Base class for all components."><polygon fill="none" stroke="#000" points="2 -210.5 2 -300.5 116 -300.5 116 -210.5 2 -210.5"/><text x="59" y="-288.5" font-family="Helvetica,sans-Serif" font-size="10" text-anchor="middle">spic::Component</text><polyline fill="none" stroke="#000" points="2 -281.5 116 -281.5"/><polyline fill="none" stroke="#000" points="2 -262.5 116 -262.5"/><text x="10" y="-250.5" font-family="Helvetica,sans-Serif" font-size="10" text-anchor="start">+ virtual ~Component</text><text x="10" y="-239.5" font-family="Helvetica,sans-Serif" font-size="10" text-anchor="start">()=default</text><text x="10" y="-228.5" font-family="Helvetica,sans-Serif" font-size="10" text-anchor="start">+ bool Active() const</text><text x="10" y="-217.5" font-family="Helvetica,sans-Serif" font-size="10" text-anchor="start">+ void Active(bool flag)</text></a></g></g><g id="edge2" class="edge"><title>Node3-&gt;Node2</title><path fill="none" stroke="#191970" d="M59,-200.35C59,-191.07 59,-181.79 59,-173.59"/><polygon fill="none" stroke="#191970" points="55.5 -200.37 59 -210.37 62.5 -200.37 55.5 -200.37"/></g></g></svg>