<svg xmlns="http://www.w3.org/2000/svg" xmlns:xlink="http://www.w3.org/1999/xlink" width="122pt" height="193pt" viewBox="0 0 122 193"><g id="graph0" class="graph" transform="scale(1 1) rotate(0) translate(4 189)"><title>spic::Collider</title><g id="node1" class="node"><title>Node1</title><g id="a_node1"><a xlink:title="The base class for all colliders. @spicapi."><polygon fill="#bfbfbf" stroke="#000" points="21.5 -.5 21.5 -57.5 92.5 -57.5 92.5 -.5 21.5 -.5"/><text x="57" y="-45.5" font-family="Helvetica,sans-Serif" font-size="10" text-anchor="middle">spic::Collider</text><polyline fill="none" stroke="#000" points="21.5 -38.5 92.5 -38.5"/><polyline fill="none" stroke="#000" points="21.5 -19.5 92.5 -19.5"/></a></g></g><g id="node2" class="node"><title>Node2</title><g id="a_node2"><a target="_top" xlink:href="classspic_1_1Component.html" xlink:title="Base class for all components."><polygon fill="none" stroke="#000" points="0 -94.5 0 -184.5 114 -184.5 114 -94.5 0 -94.5"/><text x="57" y="-172.5" font-family="Helvetica,sans-Serif" font-size="10" text-anchor="middle">spic::Component</text><polyline fill="none" stroke="#000" points="0 -165.5 114 -165.5"/><polyline fill="none" stroke="#000" points="0 -146.5 114 -146.5"/><text x="8" y="-134.5" font-family="Helvetica,sans-Serif" font-size="10" text-anchor="start">+ virtual ~Component</text><text x="8" y="-123.5" font-family="Helvetica,sans-Serif" font-size="10" text-anchor="start">()=default</text><text x="8" y="-112.5" font-family="Helvetica,sans-Serif" font-size="10" text-anchor="start">+ bool Active() const</text><text x="8" y="-101.5" font-family="Helvetica,sans-Serif" font-size="10" text-anchor="start">+ void Active(bool flag)</text></a></g></g><g id="edge1" class="edge"><title>Node2-&gt;Node1</title><path fill="none" stroke="#191970" d="M57,-84.35C57,-75.07 57,-65.79 57,-57.59"/><polygon fill="none" stroke="#191970" points="53.5 -84.37 57 -94.37 60.5 -84.37 53.5 -84.37"/></g></g></svg>