<svg xmlns="http://www.w3.org/2000/svg" xmlns:xlink="http://www.w3.org/1999/xlink" width="152pt" height="360" viewBox="0 0 152 270"><g id="graph0" class="graph" transform="scale(1 1) rotate(0) translate(4 266)"><title>spic::BehaviourScript</title><g id="node1" class="node"><title>Node1</title><g id="a_node1"><a><polygon fill="#bfbfbf" stroke="#000" points="0 -.5 0 -134.5 144 -134.5 144 -.5 0 -.5"/><text x="72" y="-122.5" font-family="Helvetica,sans-Serif" font-size="10" text-anchor="middle">spic::BehaviourScript</text><polyline fill="none" stroke="#000" points="0 -115.5 144 -115.5"/><polyline fill="none" stroke="#000" points="0 -96.5 144 -96.5"/><text x="8" y="-84.5" font-family="Helvetica,sans-Serif" font-size="10" text-anchor="start">+ virtual void OnStart()</text><text x="8" y="-73.5" font-family="Helvetica,sans-Serif" font-size="10" text-anchor="start">+ virtual void OnUpdate()</text><text x="8" y="-62.5" font-family="Helvetica,sans-Serif" font-size="10" text-anchor="start">+ virtual void OnTriggerEnter2</text><text x="8" y="-51.5" font-family="Helvetica,sans-Serif" font-size="10" text-anchor="start">D(const Collider &amp;collider)</text><text x="8" y="-40.5" font-family="Helvetica,sans-Serif" font-size="10" text-anchor="start">+ virtual void OnTriggerExit2</text><text x="8" y="-29.5" font-family="Helvetica,sans-Serif" font-size="10" text-anchor="start">D(const Collider &amp;collider)</text><text x="8" y="-18.5" font-family="Helvetica,sans-Serif" font-size="10" text-anchor="start">+ virtual void OnTriggerStay2</text><text x="8" y="-7.5" font-family="Helvetica,sans-Serif" font-size="10" text-anchor="start">D(const Collider &amp;collider)</text></a></g></g><g id="node2" class="node"><title>Node2</title><g id="a_node2"><a target="_top" xlink:href="classspic_1_1Component.html" xlink:title="Base class for all components."><polygon fill="none" stroke="#000" points="15 -171.5 15 -261.5 129 -261.5 129 -171.5 15 -171.5"/><text x="72" y="-249.5" font-family="Helvetica,sans-Serif" font-size="10" text-anchor="middle">spic::Component</text><polyline fill="none" stroke="#000" points="15 -242.5 129 -242.5"/><polyline fill="none" stroke="#000" points="15 -223.5 129 -223.5"/><text x="23" y="-211.5" font-family="Helvetica,sans-Serif" font-size="10" text-anchor="start">+ virtual ~Component</text><text x="23" y="-200.5" font-family="Helvetica,sans-Serif" font-size="10" text-anchor="start">()=default</text><text x="23" y="-189.5" font-family="Helvetica,sans-Serif" font-size="10" text-anchor="start">+ bool Active() const</text><text x="23" y="-178.5" font-family="Helvetica,sans-Serif" font-size="10" text-anchor="start">+ void Active(bool flag)</text></a></g></g><g id="edge1" class="edge"><title>Node2-&gt;Node1</title><path fill="none" stroke="#191970" d="M72,-161.37C72,-152.66 72,-143.55 72,-134.59"/><polygon fill="none" stroke="#191970" points="68.5 -161.4 72 -171.4 75.5 -161.4 68.5 -161.4"/></g></g></svg>