<svg xmlns="http://www.w3.org/2000/svg" xmlns:xlink="http://www.w3.org/1999/xlink" id="main" onload="init(evt)" version="1.1" xml:space="preserve"><style type="text/css">.edge:hover path{stroke:red}.edge:hover polygon{stroke:red;fill:red}</style><script type="text/javascript"><![CDATA[
var edges = document.getElementsByTagName('g');
if (edges && edges.length) {
  for (var i=0;i<edges.length;i++) {
    if (edges[i].id.substr(0,4)=='edge') {
      edges[i].setAttribute('class','edge');
    }
  }
}
]]></script><defs><circle id="rim" cx="0" cy="0" r="7"/><circle id="rim2" cx="0" cy="0" r="3.5"/><g id="zoomPlus"><use fill="#404040" xlink:href="#rim"><set attributeName="fill" begin="zoomplus.mouseover" end="zoomplus.mouseout" to="#808080"/></use><path fill="none" stroke="#fff" stroke-width="1.5" d="M-4,0h8M0,-4v8" pointer-events="none"/></g><g id="zoomMin"><use fill="#404040" xlink:href="#rim"><set attributeName="fill" begin="zoomminus.mouseover" end="zoomminus.mouseout" to="#808080"/></use><path fill="none" stroke="#fff" stroke-width="1.5" d="M-4,0h8" pointer-events="none"/></g><g id="dirArrow"><path fill="none" stroke="#fff" stroke-width="1.5" d="M0,-3.0v7 M-2.5,-0.5L0,-3.0L2.5,-0.5"/></g><g id="resetDef"><use fill="#404040" xlink:href="#rim2"><set attributeName="fill" begin="reset.mouseover" end="reset.mouseout" to="#808080"/></use></g></defs><script type="text/javascript">var viewWidth = 736; var viewHeight = 408; var sectionId = &apos;dynsection-0&apos;;</script><script xlink:href="svgpan.js"/><svg id="graph" class="graph"><g id="viewport"><title>spic::Component</title><g id="node1" class="node"><title>Node1</title><g id="a_node1"><a xlink:title="Base class for all components."><polygon fill="#bfbfbf" stroke="#000" points="356.5 -309.5 356.5 -399.5 470.5 -399.5 470.5 -309.5 356.5 -309.5"/><text x="413.5" y="-387.5" font-family="Helvetica,sans-Serif" font-size="10" text-anchor="middle">spic::Component</text><polyline fill="none" stroke="#000" points="356.5 -380.5 470.5 -380.5"/><polyline fill="none" stroke="#000" points="356.5 -361.5 470.5 -361.5"/><text x="364.5" y="-349.5" font-family="Helvetica,sans-Serif" font-size="10" text-anchor="start">+ virtual ~Component</text><text x="364.5" y="-338.5" font-family="Helvetica,sans-Serif" font-size="10" text-anchor="start">()=default</text><text x="364.5" y="-327.5" font-family="Helvetica,sans-Serif" font-size="10" text-anchor="start">+ bool Active() const</text><text x="364.5" y="-316.5" font-family="Helvetica,sans-Serif" font-size="10" text-anchor="start">+ void Active(bool flag)</text></a></g></g><g id="node2" class="node"><title>Node2</title><g id="a_node2"><a target="_top" xlink:href="classspic_1_1Animator.html" xlink:title="A component which can play animated sequences of sprites."><polygon fill="none" stroke="#000" points="0 -171.5 0 -239.5 121 -239.5 121 -171.5 0 -171.5"/><text x="60.5" y="-227.5" font-family="Helvetica,sans-Serif" font-size="10" text-anchor="middle">spic::Animator</text><polyline fill="none" stroke="#000" points="0 -220.5 121 -220.5"/><polyline fill="none" stroke="#000" points="0 -201.5 121 -201.5"/><text x="8" y="-189.5" font-family="Helvetica,sans-Serif" font-size="10" text-anchor="start">+ void Play(bool looping)</text><text x="8" y="-178.5" font-family="Helvetica,sans-Serif" font-size="10" text-anchor="start">+ void Stop()</text></a></g></g><g id="edge1" class="edge"><title>Node1-&gt;Node2</title><path fill="none" stroke="#191970" d="M346.31,-343.99C286.36,-333.36 197.76,-312.22 129.5,-273 114.35,-264.3 100.02,-251.55 88.39,-239.53"/><polygon fill="none" stroke="#191970" points="345.97 -347.49 356.42 -345.73 347.15 -340.59 345.97 -347.49"/></g><g id="node3" class="node"><title>Node3</title><g id="a_node3"><a target="_top" xlink:href="classspic_1_1AudioSource.html" xlink:title="Component which can play audio."><polygon fill="none" stroke="#000" points="139 -171.5 139 -239.5 260 -239.5 260 -171.5 139 -171.5"/><text x="199.5" y="-227.5" font-family="Helvetica,sans-Serif" font-size="10" text-anchor="middle">spic::AudioSource</text><polyline fill="none" stroke="#000" points="139 -220.5 260 -220.5"/><polyline fill="none" stroke="#000" points="139 -201.5 260 -201.5"/><text x="147" y="-189.5" font-family="Helvetica,sans-Serif" font-size="10" text-anchor="start">+ void Play(bool looping)</text><text x="147" y="-178.5" font-family="Helvetica,sans-Serif" font-size="10" text-anchor="start">+ void Stop()</text></a></g></g><g id="edge2" class="edge"><title>Node1-&gt;Node3</title><path fill="none" stroke="#191970" d="M347.32,-320.99C322.1,-307.47 293.63,-290.77 269.5,-273 256.14,-263.16 242.64,-250.98 231.11,-239.75"/><polygon fill="none" stroke="#191970" points="345.98 -324.24 356.46 -325.83 349.26 -318.06 345.98 -324.24"/></g><g id="node4" class="node"><title>Node4</title><g id="a_node4"><a target="_top" xlink:href="classspic_1_1BehaviourScript.html"><polygon fill="none" stroke="#000" points="278.5 -138.5 278.5 -272.5 422.5 -272.5 422.5 -138.5 278.5 -138.5"/><text x="350.5" y="-260.5" font-family="Helvetica,sans-Serif" font-size="10" text-anchor="middle">spic::BehaviourScript</text><polyline fill="none" stroke="#000" points="278.5 -253.5 422.5 -253.5"/><polyline fill="none" stroke="#000" points="278.5 -234.5 422.5 -234.5"/><text x="286.5" y="-222.5" font-family="Helvetica,sans-Serif" font-size="10" text-anchor="start">+ virtual void OnStart()</text><text x="286.5" y="-211.5" font-family="Helvetica,sans-Serif" font-size="10" text-anchor="start">+ virtual void OnUpdate()</text><text x="286.5" y="-200.5" font-family="Helvetica,sans-Serif" font-size="10" text-anchor="start">+ virtual void OnTriggerEnter2</text><text x="286.5" y="-189.5" font-family="Helvetica,sans-Serif" font-size="10" text-anchor="start">D(const Collider &amp;collider)</text><text x="286.5" y="-178.5" font-family="Helvetica,sans-Serif" font-size="10" text-anchor="start">+ virtual void OnTriggerExit2</text><text x="286.5" y="-167.5" font-family="Helvetica,sans-Serif" font-size="10" text-anchor="start">D(const Collider &amp;collider)</text><text x="286.5" y="-156.5" font-family="Helvetica,sans-Serif" font-size="10" text-anchor="start">+ virtual void OnTriggerStay2</text><text x="286.5" y="-145.5" font-family="Helvetica,sans-Serif" font-size="10" text-anchor="start">D(const Collider &amp;collider)</text></a></g></g><g id="edge3" class="edge"><title>Node1-&gt;Node4</title><path fill="none" stroke="#191970" d="M390.55,-299.94C386.74,-291.05 382.75,-281.75 378.82,-272.59"/><polygon fill="none" stroke="#191970" points="387.44 -301.58 394.6 -309.4 393.88 -298.82 387.44 -301.58"/></g><g id="node5" class="node"><title>Node5</title><g id="a_node5"><a target="_top" xlink:href="classspic_1_1Collider.html" xlink:title="The base class for all colliders. @spicapi."><polygon fill="none" stroke="#000" points="441 -177 441 -234 512 -234 512 -177 441 -177"/><text x="476.5" y="-222" font-family="Helvetica,sans-Serif" font-size="10" text-anchor="middle">spic::Collider</text><polyline fill="none" stroke="#000" points="441 -215 512 -215"/><polyline fill="none" stroke="#000" points="441 -196 512 -196"/></a></g></g><g id="edge4" class="edge"><title>Node1-&gt;Node5</title><path fill="none" stroke="#191970" d="M436.41,-300.05C445.95,-277.79 456.62,-252.88 464.56,-234.37"/><polygon fill="none" stroke="#191970" points="433.12 -298.82 432.4 -309.4 439.56 -301.58 433.12 -298.82"/></g><g id="node8" class="node"><title>Node8</title><g id="a_node8"><a target="_top" xlink:href="classspic_1_1RigidBody.html" xlink:title="A component representing a rigid body."><polygon fill="none" stroke="#000" points="530.5 -171.5 530.5 -239.5 644.5 -239.5 644.5 -171.5 530.5 -171.5"/><text x="587.5" y="-227.5" font-family="Helvetica,sans-Serif" font-size="10" text-anchor="middle">spic::RigidBody</text><polyline fill="none" stroke="#000" points="530.5 -220.5 644.5 -220.5"/><polyline fill="none" stroke="#000" points="530.5 -201.5 644.5 -201.5"/><text x="538.5" y="-189.5" font-family="Helvetica,sans-Serif" font-size="10" text-anchor="start">+ void AddForce(const</text><text x="538.5" y="-178.5" font-family="Helvetica,sans-Serif" font-size="10" text-anchor="start">Point &amp;forceDirection)</text></a></g></g><g id="edge7" class="edge"><title>Node1-&gt;Node8</title><path fill="none" stroke="#191970" d="M478.89,-307.2C493.24,-296.37 508.14,-284.6 521.5,-273 533.42,-262.66 545.78,-250.61 556.54,-239.62"/><polygon fill="none" stroke="#191970" points="476.43 -304.67 470.51 -313.46 480.62 -310.28 476.43 -304.67"/></g><g id="node9" class="node"><title>Node9</title><g id="a_node9"><a target="_top" xlink:href="classspic_1_1Sprite.html" xlink:title="A component representing a sprite (small image) @spicapi."><polygon fill="none" stroke="#000" points="663 -177 663 -234 728 -234 728 -177 663 -177"/><text x="695.5" y="-222" font-family="Helvetica,sans-Serif" font-size="10" text-anchor="middle">spic::Sprite</text><polyline fill="none" stroke="#000" points="663 -215 728 -215"/><polyline fill="none" stroke="#000" points="663 -196 728 -196"/></a></g></g><g id="edge8" class="edge"><title>Node1-&gt;Node9</title><path fill="none" stroke="#191970" d="M480.63,-343.58C532.28,-333.17 603.11,-312.56 653.5,-273 666.39,-262.88 676.42,-247.64 683.45,-234.3"/><polygon fill="none" stroke="#191970" points="479.72 -340.19 470.57 -345.53 481.05 -347.07 479.72 -340.19"/></g><g id="node6" class="node"><title>Node6</title><g id="a_node6"><a target="_top" xlink:href="classspic_1_1BoxCollider.html" xlink:title="A collider which represents a rectangular collision area."><polygon fill="none" stroke="#000" points="326 -.5 326 -101.5 475 -101.5 475 -.5 326 -.5"/><text x="400.5" y="-89.5" font-family="Helvetica,sans-Serif" font-size="10" text-anchor="middle">spic::BoxCollider</text><polyline fill="none" stroke="#000" points="326 -82.5 475 -82.5"/><polyline fill="none" stroke="#000" points="326 -63.5 475 -63.5"/><text x="334" y="-51.5" font-family="Helvetica,sans-Serif" font-size="10" text-anchor="start">+ double Width() const</text><text x="334" y="-40.5" font-family="Helvetica,sans-Serif" font-size="10" text-anchor="start">+ void Width(double newWidth)</text><text x="334" y="-29.5" font-family="Helvetica,sans-Serif" font-size="10" text-anchor="start">+ double Height() const</text><text x="334" y="-18.5" font-family="Helvetica,sans-Serif" font-size="10" text-anchor="start">+ void Height(double</text><text x="334" y="-7.5" font-family="Helvetica,sans-Serif" font-size="10" text-anchor="start">newHeight)</text></a></g></g><g id="edge5" class="edge"><title>Node5-&gt;Node6</title><path fill="none" stroke="#191970" d="M458.24,-167.85C448.34,-148 435.97,-123.18 425.23,-101.61"/><polygon fill="none" stroke="#191970" points="455.14 -169.49 462.74 -176.88 461.41 -166.37 455.14 -169.49"/></g><g id="node7" class="node"><title>Node7</title><g id="a_node7"><a target="_top" xlink:href="classspic_1_1CircleCollider.html" xlink:title="A collider which represents a circular collision area."><polygon fill="none" stroke="#000" points="493.5 -11.5 493.5 -90.5 611.5 -90.5 611.5 -11.5 493.5 -11.5"/><text x="552.5" y="-78.5" font-family="Helvetica,sans-Serif" font-size="10" text-anchor="middle">spic::CircleCollider</text><polyline fill="none" stroke="#000" points="493.5 -71.5 611.5 -71.5"/><polyline fill="none" stroke="#000" points="493.5 -52.5 611.5 -52.5"/><text x="501.5" y="-40.5" font-family="Helvetica,sans-Serif" font-size="10" text-anchor="start">+ double Radius() const</text><text x="501.5" y="-29.5" font-family="Helvetica,sans-Serif" font-size="10" text-anchor="start">+ void Radius(double</text><text x="501.5" y="-18.5" font-family="Helvetica,sans-Serif" font-size="10" text-anchor="start">newRadius)</text></a></g></g><g id="edge6" class="edge"><title>Node5-&gt;Node7</title><path fill="none" stroke="#191970" d="M494.86,-167.67C506.48,-144.35 521.48,-114.24 533.27,-90.6"/><polygon fill="none" stroke="#191970" points="491.59 -166.37 490.26 -176.88 497.86 -169.49 491.59 -166.37"/></g></g></svg><g id="navigator" fill="#404254" transform="translate(0 0)"><rect width="60" height="60" x="0" y="0" fill="#f2f5e9" fill-opacity=".5" stroke="#606060" stroke-width=".5"/><use id="zoomplus" x="17" y="9" onmousedown="handleZoom(evt,'in')" xlink:href="#zoomPlus"/><use id="zoomminus" x="42" y="9" onmousedown="handleZoom(evt,'out')" xlink:href="#zoomMin"/><use id="reset" x="30" y="36" onmousedown="handleReset()" xlink:href="#resetDef"/><g id="arrowUp" onmousedown="handlePan(0,-1)" transform="translate(30 24)" xlink:href="#dirArrow"><use fill="#404040" xlink:href="#rim"><set attributeName="fill" begin="arrowUp.mouseover" end="arrowUp.mouseout" to="#808080"/></use><path fill="none" stroke="#fff" stroke-width="1.5" d="M0,-3.0v7 M-2.5,-0.5L0,-3.0L2.5,-0.5"/></g><g id="arrowRight" onmousedown="handlePan(1,0)" transform="rotate(90) translate(36 -43)" xlink:href="#dirArrow"><use fill="#404040" xlink:href="#rim"><set attributeName="fill" begin="arrowRight.mouseover" end="arrowRight.mouseout" to="#808080"/></use><path fill="none" stroke="#fff" stroke-width="1.5" d="M0,-3.0v7 M-2.5,-0.5L0,-3.0L2.5,-0.5"/></g><g id="arrowDown" onmousedown="handlePan(0,1)" transform="rotate(180) translate(-30 -48)" xlink:href="#dirArrow"><use fill="#404040" xlink:href="#rim"><set attributeName="fill" begin="arrowDown.mouseover" end="arrowDown.mouseout" to="#808080"/></use><path fill="none" stroke="#fff" stroke-width="1.5" d="M0,-3.0v7 M-2.5,-0.5L0,-3.0L2.5,-0.5"/></g><g id="arrowLeft" onmousedown="handlePan(-1,0)" transform="rotate(270) translate(-36 17)" xlink:href="#dirArrow"><use fill="#404040" xlink:href="#rim"><set attributeName="fill" begin="arrowLeft.mouseover" end="arrowLeft.mouseout" to="#808080"/></use><path fill="none" stroke="#fff" stroke-width="1.5" d="M0,-3.0v7 M-2.5,-0.5L0,-3.0L2.5,-0.5"/></g></g><svg width="100%" height="30" preserveAspectRatio="xMaxYMin meet" viewBox="0 0 15 15"><g id="arrow_out" transform="scale(0.3 0.3)"><a target="_base" xlink:href="classspic_1_1Component__inherit__graph_org.svg"><rect id="button" width="38" height="38" x="6" y="6" fill="#f2f5e9" fill-opacity=".5" stroke="#606060" stroke-width="1" rx="5" ry="5"/><path id="arrow" d="M 11.500037,31.436501 C 11.940474,20.09759 22.043105,11.32322 32.158766,21.979434 L 37.068811,17.246167 C 37.068811,17.246167 37.088388,32 37.088388,32 L 22.160133,31.978069 C 22.160133,31.978069 26.997745,27.140456 26.997745,27.140456 C 18.528582,18.264221 13.291696,25.230495 11.500037,31.436501 z" style="fill:#404040"/></a></g></svg></svg>