<svg xmlns="http://www.w3.org/2000/svg" xmlns:xlink="http://www.w3.org/1999/xlink" width="476" height="106pt" viewBox="0 0 357 106"><g id="graph0" class="graph" transform="scale(1 1) rotate(0) translate(4 102)"><title>includes/spic-prj-api/Collider.hpp</title><g id="node1" class="node"><title>Node1</title><g id="a_node1"><a><polygon fill="#bfbfbf" stroke="#000" points="125 -67.5 125 -97.5 228 -97.5 228 -67.5 125 -67.5"/><text x="133" y="-85.5" font-family="Helvetica,sans-Serif" font-size="10" text-anchor="start">includes/spic-prj-api</text><text x="176.5" y="-74.5" font-family="Helvetica,sans-Serif" font-size="10" text-anchor="middle">/Collider.hpp</text></a></g></g><g id="node2" class="node"><title>Node2</title><g id="a_node2"><a target="_top" xlink:href="BehaviourScript_8hpp.html"><polygon fill="none" stroke="#000" points="0 -.5 0 -30.5 107 -30.5 107 -.5 0 -.5"/><text x="8" y="-18.5" font-family="Helvetica,sans-Serif" font-size="10" text-anchor="start">includes/spic-prj-api</text><text x="53.5" y="-7.5" font-family="Helvetica,sans-Serif" font-size="10" text-anchor="middle">/BehaviourScript.hpp</text></a></g></g><g id="edge1" class="edge"><title>Node1-&gt;Node2</title><path fill="none" stroke="#191970" d="M140.95,-62.71C121.55,-52.46 97.94,-39.98 80.14,-30.58"/><polygon fill="#191970" stroke="#191970" points="139.33 -65.82 149.81 -67.4 142.6 -59.63 139.33 -65.82"/></g><g id="node3" class="node"><title>Node3</title><g id="a_node3"><a target="_top" xlink:href="BoxCollider_8hpp.html"><polygon fill="none" stroke="#000" points="125 -.5 125 -30.5 228 -30.5 228 -.5 125 -.5"/><text x="133" y="-18.5" font-family="Helvetica,sans-Serif" font-size="10" text-anchor="start">includes/spic-prj-api</text><text x="176.5" y="-7.5" font-family="Helvetica,sans-Serif" font-size="10" text-anchor="middle">/BoxCollider.hpp</text></a></g></g><g id="edge2" class="edge"><title>Node1-&gt;Node3</title><path fill="none" stroke="#191970" d="M176.5,-57.11C176.5,-48.15 176.5,-38.32 176.5,-30.58"/><polygon fill="#191970" stroke="#191970" points="173 -57.4 176.5 -67.4 180 -57.4 173 -57.4"/></g><g id="node4" class="node"><title>Node4</title><g id="a_node4"><a target="_top" xlink:href="CircleCollider_8hpp.html"><polygon fill="none" stroke="#000" points="246 -.5 246 -30.5 349 -30.5 349 -.5 246 -.5"/><text x="254" y="-18.5" font-family="Helvetica,sans-Serif" font-size="10" text-anchor="start">includes/spic-prj-api</text><text x="297.5" y="-7.5" font-family="Helvetica,sans-Serif" font-size="10" text-anchor="middle">/CircleCollider.hpp</text></a></g></g><g id="edge3" class="edge"><title>Node1-&gt;Node4</title><path fill="none" stroke="#191970" d="M211.73,-62.57C230.76,-52.35 253.87,-39.94 271.3,-30.58"/><polygon fill="#191970" stroke="#191970" points="209.91 -59.58 202.76 -67.4 213.22 -65.75 209.91 -59.58"/></g></g></svg>