<svg xmlns="http://www.w3.org/2000/svg" xmlns:xlink="http://www.w3.org/1999/xlink" width="595pt" height="173pt" viewBox="0 0 595 173"><g id="graph0" class="graph" transform="scale(1 1) rotate(0) translate(4 169)"><title>includes/spic-prj-api/Color.hpp</title><g id="node1" class="node"><title>Node1</title><g id="a_node1"><a><polygon fill="#bfbfbf" stroke="#000" points="242 -134.5 242 -164.5 345 -164.5 345 -134.5 242 -134.5"/><text x="250" y="-152.5" font-family="Helvetica,sans-Serif" font-size="10" text-anchor="start">includes/spic-prj-api</text><text x="293.5" y="-141.5" font-family="Helvetica,sans-Serif" font-size="10" text-anchor="middle">/Color.hpp</text></a></g></g><g id="node2" class="node"><title>Node2</title><g id="a_node2"><a target="_top" xlink:href="Camera_8hpp.html"><polygon fill="none" stroke="#000" points="0 -67.5 0 -97.5 103 -97.5 103 -67.5 0 -67.5"/><text x="8" y="-85.5" font-family="Helvetica,sans-Serif" font-size="10" text-anchor="start">includes/spic-prj-api</text><text x="51.5" y="-74.5" font-family="Helvetica,sans-Serif" font-size="10" text-anchor="middle">/Camera.hpp</text></a></g></g><g id="edge1" class="edge"><title>Node1-&gt;Node2</title><path fill="none" stroke="#191970" d="M232.01,-131.98C192.13,-121.27 140.77,-107.48 103.04,-97.34"/><polygon fill="#191970" stroke="#191970" points="231.32 -135.42 241.88 -134.64 233.13 -128.66 231.32 -135.42"/></g><g id="node3" class="node"><title>Node3</title><g id="a_node3"><a target="_top" xlink:href="Color_8cpp.html"><polygon fill="none" stroke="#000" points="121 -67.5 121 -97.5 224 -97.5 224 -67.5 121 -67.5"/><text x="129" y="-85.5" font-family="Helvetica,sans-Serif" font-size="10" text-anchor="start">includes/spic-prj-api</text><text x="172.5" y="-74.5" font-family="Helvetica,sans-Serif" font-size="10" text-anchor="middle">/Color.cpp</text></a></g></g><g id="edge2" class="edge"><title>Node1-&gt;Node3</title><path fill="none" stroke="#191970" d="M258.27,-129.57C239.24,-119.35 216.13,-106.94 198.7,-97.58"/><polygon fill="#191970" stroke="#191970" points="256.78 -132.75 267.24 -134.4 260.09 -126.58 256.78 -132.75"/></g><g id="node4" class="node"><title>Node4</title><g id="a_node4"><a target="_top" xlink:href="Debug_8hpp.html"><polygon fill="none" stroke="#000" points="242 -67.5 242 -97.5 345 -97.5 345 -67.5 242 -67.5"/><text x="250" y="-85.5" font-family="Helvetica,sans-Serif" font-size="10" text-anchor="start">includes/spic-prj-api</text><text x="293.5" y="-74.5" font-family="Helvetica,sans-Serif" font-size="10" text-anchor="middle">/Debug.hpp</text></a></g></g><g id="edge3" class="edge"><title>Node1-&gt;Node4</title><path fill="none" stroke="#191970" d="M293.5,-124.11C293.5,-115.15 293.5,-105.32 293.5,-97.58"/><polygon fill="#191970" stroke="#191970" points="290 -124.4 293.5 -134.4 297 -124.4 290 -124.4"/></g><g id="node5" class="node"><title>Node5</title><g id="a_node5"><a target="_top" xlink:href="Sprite_8hpp.html"><polygon fill="none" stroke="#000" points="363 -67.5 363 -97.5 466 -97.5 466 -67.5 363 -67.5"/><text x="371" y="-85.5" font-family="Helvetica,sans-Serif" font-size="10" text-anchor="start">includes/spic-prj-api</text><text x="414.5" y="-74.5" font-family="Helvetica,sans-Serif" font-size="10" text-anchor="middle">/Sprite.hpp</text></a></g></g><g id="edge4" class="edge"><title>Node1-&gt;Node5</title><path fill="none" stroke="#191970" d="M328.73,-129.57C347.76,-119.35 370.87,-106.94 388.3,-97.58"/><polygon fill="#191970" stroke="#191970" points="326.91 -126.58 319.76 -134.4 330.22 -132.75 326.91 -126.58"/></g><g id="node7" class="node"><title>Node7</title><g id="a_node7"><a target="_top" xlink:href="Text_8hpp.html"><polygon fill="none" stroke="#000" points="484 -67.5 484 -97.5 587 -97.5 587 -67.5 484 -67.5"/><text x="492" y="-85.5" font-family="Helvetica,sans-Serif" font-size="10" text-anchor="start">includes/spic-prj-api</text><text x="535.5" y="-74.5" font-family="Helvetica,sans-Serif" font-size="10" text-anchor="middle">/Text.hpp</text></a></g></g><g id="edge6" class="edge"><title>Node1-&gt;Node7</title><path fill="none" stroke="#191970" d="M354.99,-131.98C394.87,-121.27 446.23,-107.48 483.96,-97.34"/><polygon fill="#191970" stroke="#191970" points="353.87 -128.66 345.12 -134.64 355.68 -135.42 353.87 -128.66"/></g><g id="node6" class="node"><title>Node6</title><g id="a_node6"><a target="_top" xlink:href="Animator_8hpp.html"><polygon fill="none" stroke="#000" points="363 -.5 363 -30.5 466 -30.5 466 -.5 363 -.5"/><text x="371" y="-18.5" font-family="Helvetica,sans-Serif" font-size="10" text-anchor="start">includes/spic-prj-api</text><text x="414.5" y="-7.5" font-family="Helvetica,sans-Serif" font-size="10" text-anchor="middle">/Animator.hpp</text></a></g></g><g id="edge5" class="edge"><title>Node5-&gt;Node6</title><path fill="none" stroke="#191970" d="M414.5,-57.11C414.5,-48.15 414.5,-38.32 414.5,-30.58"/><polygon fill="#191970" stroke="#191970" points="411 -57.4 414.5 -67.4 418 -57.4 411 -57.4"/></g></g></svg>