<svg xmlns="http://www.w3.org/2000/svg" xmlns:xlink="http://www.w3.org/1999/xlink" id="main" onload="init(evt)" version="1.1" xml:space="preserve"><style type="text/css">.edge:hover path{stroke:red}.edge:hover polygon{stroke:red;fill:red}</style><script type="text/javascript"><![CDATA[
var edges = document.getElementsByTagName('g');
if (edges && edges.length) {
  for (var i=0;i<edges.length;i++) {
    if (edges[i].id.substr(0,4)=='edge') {
      edges[i].setAttribute('class','edge');
    }
  }
}
]]></script><defs><circle id="rim" cx="0" cy="0" r="7"/><circle id="rim2" cx="0" cy="0" r="3.5"/><g id="zoomPlus"><use fill="#404040" xlink:href="#rim"><set attributeName="fill" begin="zoomplus.mouseover" end="zoomplus.mouseout" to="#808080"/></use><path fill="none" stroke="#fff" stroke-width="1.5" d="M-4,0h8M0,-4v8" pointer-events="none"/></g><g id="zoomMin"><use fill="#404040" xlink:href="#rim"><set attributeName="fill" begin="zoomminus.mouseover" end="zoomminus.mouseout" to="#808080"/></use><path fill="none" stroke="#fff" stroke-width="1.5" d="M-4,0h8" pointer-events="none"/></g><g id="dirArrow"><path fill="none" stroke="#fff" stroke-width="1.5" d="M0,-3.0v7 M-2.5,-0.5L0,-3.0L2.5,-0.5"/></g><g id="resetDef"><use fill="#404040" xlink:href="#rim2"><set attributeName="fill" begin="reset.mouseover" end="reset.mouseout" to="#808080"/></use></g></defs><script type="text/javascript">var viewWidth = 841; var viewHeight = 240; var sectionId = &apos;dynsection-0&apos;;</script><script xlink:href="svgpan.js"/><svg id="graph" class="graph"><g id="viewport"><title>includes/spic-prj-api/Component.hpp</title><g id="node1" class="node"><title>Node1</title><g id="a_node1"><a><polygon fill="#bfbfbf" stroke="#000" points="287 -201.5 287 -231.5 390 -231.5 390 -201.5 287 -201.5"/><text x="295" y="-219.5" font-family="Helvetica,sans-Serif" font-size="10" text-anchor="start">includes/spic-prj-api</text><text x="338.5" y="-208.5" font-family="Helvetica,sans-Serif" font-size="10" text-anchor="middle">/Component.hpp</text></a></g></g><g id="node2" class="node"><title>Node2</title><g id="a_node2"><a target="_top" xlink:href="Animator_8hpp.html"><polygon fill="none" stroke="#000" points="367 -67.5 367 -97.5 470 -97.5 470 -67.5 367 -67.5"/><text x="375" y="-85.5" font-family="Helvetica,sans-Serif" font-size="10" text-anchor="start">includes/spic-prj-api</text><text x="418.5" y="-74.5" font-family="Helvetica,sans-Serif" font-size="10" text-anchor="middle">/Animator.hpp</text></a></g></g><g id="edge1" class="edge"><title>Node1-&gt;Node2</title><path fill="none" stroke="#191970" d="M340.06,-191.22C342.1,-174.14 346.78,-151.33 357.5,-134 366.76,-119.04 382.01,-106.41 394.95,-97.53"/><polygon fill="#191970" stroke="#191970" points="336.55 -191.21 339.07 -201.5 343.52 -191.88 336.55 -191.21"/></g><g id="node3" class="node"><title>Node3</title><g id="a_node3"><a target="_top" xlink:href="AudioSource_8hpp.html"><polygon fill="none" stroke="#000" points="86 -134.5 86 -164.5 189 -164.5 189 -134.5 86 -134.5"/><text x="94" y="-152.5" font-family="Helvetica,sans-Serif" font-size="10" text-anchor="start">includes/spic-prj-api</text><text x="137.5" y="-141.5" font-family="Helvetica,sans-Serif" font-size="10" text-anchor="middle">/AudioSource.hpp</text></a></g></g><g id="edge2" class="edge"><title>Node1-&gt;Node3</title><path fill="none" stroke="#191970" d="M285.09,-198.23C252.57,-187.71 211.56,-174.45 181.03,-164.58"/><polygon fill="#191970" stroke="#191970" points="284.29 -201.65 294.89 -201.4 286.45 -194.99 284.29 -201.65"/></g><g id="node4" class="node"><title>Node4</title><g id="a_node4"><a target="_top" xlink:href="BehaviourScript_8hpp.html"><polygon fill="none" stroke="#000" points="0 -67.5 0 -97.5 107 -97.5 107 -67.5 0 -67.5"/><text x="8" y="-85.5" font-family="Helvetica,sans-Serif" font-size="10" text-anchor="start">includes/spic-prj-api</text><text x="53.5" y="-74.5" font-family="Helvetica,sans-Serif" font-size="10" text-anchor="middle">/BehaviourScript.hpp</text></a></g></g><g id="edge3" class="edge"><title>Node1-&gt;Node4</title><path fill="none" stroke="#191970" d="M276.63,-210.99C208.59,-204.79 105.09,-191.27 76.5,-165 57.55,-147.59 53.76,-115.9 53.26,-97.59"/><polygon fill="#191970" stroke="#191970" points="276.55 -214.5 286.81 -211.89 277.16 -207.53 276.55 -214.5"/></g><g id="node5" class="node"><title>Node5</title><g id="a_node5"><a target="_top" xlink:href="Collider_8hpp.html"><polygon fill="none" stroke="#000" points="207 -134.5 207 -164.5 310 -164.5 310 -134.5 207 -134.5"/><text x="215" y="-152.5" font-family="Helvetica,sans-Serif" font-size="10" text-anchor="start">includes/spic-prj-api</text><text x="258.5" y="-141.5" font-family="Helvetica,sans-Serif" font-size="10" text-anchor="middle">/Collider.hpp</text></a></g></g><g id="edge4" class="edge"><title>Node1-&gt;Node5</title><path fill="none" stroke="#191970" d="M313.13,-194.88C300.97,-185.01 286.72,-173.43 275.82,-164.58"/><polygon fill="#191970" stroke="#191970" points="311.17 -197.81 321.14 -201.4 315.59 -192.37 311.17 -197.81"/></g><g id="node8" class="node"><title>Node8</title><g id="a_node8"><a target="_top" xlink:href="GameObject_8hpp.html"><polygon fill="none" stroke="#000" points="609 -134.5 609 -164.5 712 -164.5 712 -134.5 609 -134.5"/><text x="617" y="-152.5" font-family="Helvetica,sans-Serif" font-size="10" text-anchor="start">includes/spic-prj-api</text><text x="660.5" y="-141.5" font-family="Helvetica,sans-Serif" font-size="10" text-anchor="middle">/GameObject.hpp</text></a></g></g><g id="edge8" class="edge"><title>Node1-&gt;Node8</title><path fill="none" stroke="#191970" d="M400.3,-204.43C453.5,-194.7 532.24,-179.82 600.5,-165 603.22,-164.41 606.01,-163.79 608.82,-163.15"/><polygon fill="#191970" stroke="#191970" points="399.56 -201.01 390.35 -206.24 400.81 -207.89 399.56 -201.01"/></g><g id="node14" class="node"><title>Node14</title><g id="a_node14"><a target="_top" xlink:href="RigidBody_8hpp.html"><polygon fill="none" stroke="#000" points="488 -134.5 488 -164.5 591 -164.5 591 -134.5 488 -134.5"/><text x="496" y="-152.5" font-family="Helvetica,sans-Serif" font-size="10" text-anchor="start">includes/spic-prj-api</text><text x="539.5" y="-141.5" font-family="Helvetica,sans-Serif" font-size="10" text-anchor="middle">/RigidBody.hpp</text></a></g></g><g id="edge14" class="edge"><title>Node1-&gt;Node14</title><path fill="none" stroke="#191970" d="M391.91,-198.23C424.43,-187.71 465.44,-174.45 495.97,-164.58"/><polygon fill="#191970" stroke="#191970" points="390.55 -194.99 382.11 -201.4 392.71 -201.65 390.55 -194.99"/></g><g id="node15" class="node"><title>Node15</title><g id="a_node15"><a target="_top" xlink:href="Sprite_8hpp.html"><polygon fill="none" stroke="#000" points="367 -134.5 367 -164.5 470 -164.5 470 -134.5 367 -134.5"/><text x="375" y="-152.5" font-family="Helvetica,sans-Serif" font-size="10" text-anchor="start">includes/spic-prj-api</text><text x="418.5" y="-141.5" font-family="Helvetica,sans-Serif" font-size="10" text-anchor="middle">/Sprite.hpp</text></a></g></g><g id="edge15" class="edge"><title>Node1-&gt;Node15</title><path fill="none" stroke="#191970" d="M363.87,-194.88C376.03,-185.01 390.28,-173.43 401.18,-164.58"/><polygon fill="#191970" stroke="#191970" points="361.41 -192.37 355.86 -201.4 365.83 -197.81 361.41 -192.37"/></g><g id="edge5" class="edge"><title>Node5-&gt;Node4</title><path fill="none" stroke="#191970" d="M204.71,-131.44C171.48,-120.91 129.35,-107.55 98,-97.61"/><polygon fill="#191970" stroke="#191970" points="203.68 -134.79 214.27 -134.48 205.8 -128.12 203.68 -134.79"/></g><g id="node6" class="node"><title>Node6</title><g id="a_node6"><a target="_top" xlink:href="BoxCollider_8hpp.html"><polygon fill="none" stroke="#000" points="125 -67.5 125 -97.5 228 -97.5 228 -67.5 125 -67.5"/><text x="133" y="-85.5" font-family="Helvetica,sans-Serif" font-size="10" text-anchor="start">includes/spic-prj-api</text><text x="176.5" y="-74.5" font-family="Helvetica,sans-Serif" font-size="10" text-anchor="middle">/BoxCollider.hpp</text></a></g></g><g id="edge6" class="edge"><title>Node5-&gt;Node6</title><path fill="none" stroke="#191970" d="M232.85,-128.17C220.31,-118.23 205.53,-106.51 194.26,-97.58"/><polygon fill="#191970" stroke="#191970" points="230.7 -130.93 240.71 -134.4 235.04 -125.44 230.7 -130.93"/></g><g id="node7" class="node"><title>Node7</title><g id="a_node7"><a target="_top" xlink:href="CircleCollider_8hpp.html"><polygon fill="none" stroke="#000" points="246 -67.5 246 -97.5 349 -97.5 349 -67.5 246 -67.5"/><text x="254" y="-85.5" font-family="Helvetica,sans-Serif" font-size="10" text-anchor="start">includes/spic-prj-api</text><text x="297.5" y="-74.5" font-family="Helvetica,sans-Serif" font-size="10" text-anchor="middle">/CircleCollider.hpp</text></a></g></g><g id="edge7" class="edge"><title>Node5-&gt;Node7</title><path fill="none" stroke="#191970" d="M272.25,-125.58C277.86,-116.24 284.15,-105.75 289.05,-97.58"/><polygon fill="#191970" stroke="#191970" points="269.11 -124.02 266.96 -134.4 275.11 -127.62 269.11 -124.02"/></g><g id="node9" class="node"><title>Node9</title><g id="a_node9"><a target="_top" xlink:href="Camera_8hpp.html"><polygon fill="none" stroke="#000" points="730 -67.5 730 -97.5 833 -97.5 833 -67.5 730 -67.5"/><text x="738" y="-85.5" font-family="Helvetica,sans-Serif" font-size="10" text-anchor="start">includes/spic-prj-api</text><text x="781.5" y="-74.5" font-family="Helvetica,sans-Serif" font-size="10" text-anchor="middle">/Camera.hpp</text></a></g></g><g id="edge9" class="edge"><title>Node8-&gt;Node9</title><path fill="none" stroke="#191970" d="M695.73,-129.57C714.76,-119.35 737.87,-106.94 755.3,-97.58"/><polygon fill="#191970" stroke="#191970" points="693.91 -126.58 686.76 -134.4 697.22 -132.75 693.91 -126.58"/></g><g id="node10" class="node"><title>Node10</title><g id="a_node10"><a target="_top" xlink:href="Scene_8hpp.html"><polygon fill="none" stroke="#000" points="488 -67.5 488 -97.5 591 -97.5 591 -67.5 488 -67.5"/><text x="496" y="-85.5" font-family="Helvetica,sans-Serif" font-size="10" text-anchor="start">includes/spic-prj-api</text><text x="539.5" y="-74.5" font-family="Helvetica,sans-Serif" font-size="10" text-anchor="middle">/Scene.hpp</text></a></g></g><g id="edge10" class="edge"><title>Node8-&gt;Node10</title><path fill="none" stroke="#191970" d="M625.27,-129.57C606.24,-119.35 583.13,-106.94 565.7,-97.58"/><polygon fill="#191970" stroke="#191970" points="623.78 -132.75 634.24 -134.4 627.09 -126.58 623.78 -132.75"/></g><g id="node11" class="node"><title>Node11</title><g id="a_node11"><a target="_top" xlink:href="UIObject_8hpp.html"><polygon fill="none" stroke="#000" points="609 -67.5 609 -97.5 712 -97.5 712 -67.5 609 -67.5"/><text x="617" y="-85.5" font-family="Helvetica,sans-Serif" font-size="10" text-anchor="start">includes/spic-prj-api</text><text x="660.5" y="-74.5" font-family="Helvetica,sans-Serif" font-size="10" text-anchor="middle">/UIObject.hpp</text></a></g></g><g id="edge11" class="edge"><title>Node8-&gt;Node11</title><path fill="none" stroke="#191970" d="M660.5,-124.11C660.5,-115.15 660.5,-105.32 660.5,-97.58"/><polygon fill="#191970" stroke="#191970" points="657 -124.4 660.5 -134.4 664 -124.4 657 -124.4"/></g><g id="node12" class="node"><title>Node12</title><g id="a_node12"><a target="_top" xlink:href="Button_8hpp.html"><polygon fill="none" stroke="#000" points="548 -.5 548 -30.5 651 -30.5 651 -.5 548 -.5"/><text x="556" y="-18.5" font-family="Helvetica,sans-Serif" font-size="10" text-anchor="start">includes/spic-prj-api</text><text x="599.5" y="-7.5" font-family="Helvetica,sans-Serif" font-size="10" text-anchor="middle">/Button.hpp</text></a></g></g><g id="edge12" class="edge"><title>Node11-&gt;Node12</title><path fill="none" stroke="#191970" d="M640.35,-60.02C631.26,-50.34 620.78,-39.17 612.71,-30.58"/><polygon fill="#191970" stroke="#191970" points="637.87 -62.5 647.26 -67.4 642.97 -57.71 637.87 -62.5"/></g><g id="node13" class="node"><title>Node13</title><g id="a_node13"><a target="_top" xlink:href="Text_8hpp.html"><polygon fill="none" stroke="#000" points="669 -.5 669 -30.5 772 -30.5 772 -.5 669 -.5"/><text x="677" y="-18.5" font-family="Helvetica,sans-Serif" font-size="10" text-anchor="start">includes/spic-prj-api</text><text x="720.5" y="-7.5" font-family="Helvetica,sans-Serif" font-size="10" text-anchor="middle">/Text.hpp</text></a></g></g><g id="edge13" class="edge"><title>Node11-&gt;Node13</title><path fill="none" stroke="#191970" d="M680.32,-60.02C689.26,-50.34 699.57,-39.17 707.51,-30.58"/><polygon fill="#191970" stroke="#191970" points="677.73 -57.67 673.52 -67.4 682.87 -62.42 677.73 -57.67"/></g><g id="edge16" class="edge"><title>Node15-&gt;Node2</title><path fill="none" stroke="#191970" d="M418.5,-124.11C418.5,-115.15 418.5,-105.32 418.5,-97.58"/><polygon fill="#191970" stroke="#191970" points="415 -124.4 418.5 -134.4 422 -124.4 415 -124.4"/></g></g></svg><g id="navigator" fill="#404254" transform="translate(0 0)"><rect width="60" height="60" x="0" y="0" fill="#f2f5e9" fill-opacity=".5" stroke="#606060" stroke-width=".5"/><use id="zoomplus" x="17" y="9" onmousedown="handleZoom(evt,'in')" xlink:href="#zoomPlus"/><use id="zoomminus" x="42" y="9" onmousedown="handleZoom(evt,'out')" xlink:href="#zoomMin"/><use id="reset" x="30" y="36" onmousedown="handleReset()" xlink:href="#resetDef"/><g id="arrowUp" onmousedown="handlePan(0,-1)" transform="translate(30 24)" xlink:href="#dirArrow"><use fill="#404040" xlink:href="#rim"><set attributeName="fill" begin="arrowUp.mouseover" end="arrowUp.mouseout" to="#808080"/></use><path fill="none" stroke="#fff" stroke-width="1.5" d="M0,-3.0v7 M-2.5,-0.5L0,-3.0L2.5,-0.5"/></g><g id="arrowRight" onmousedown="handlePan(1,0)" transform="rotate(90) translate(36 -43)" xlink:href="#dirArrow"><use fill="#404040" xlink:href="#rim"><set attributeName="fill" begin="arrowRight.mouseover" end="arrowRight.mouseout" to="#808080"/></use><path fill="none" stroke="#fff" stroke-width="1.5" d="M0,-3.0v7 M-2.5,-0.5L0,-3.0L2.5,-0.5"/></g><g id="arrowDown" onmousedown="handlePan(0,1)" transform="rotate(180) translate(-30 -48)" xlink:href="#dirArrow"><use fill="#404040" xlink:href="#rim"><set attributeName="fill" begin="arrowDown.mouseover" end="arrowDown.mouseout" to="#808080"/></use><path fill="none" stroke="#fff" stroke-width="1.5" d="M0,-3.0v7 M-2.5,-0.5L0,-3.0L2.5,-0.5"/></g><g id="arrowLeft" onmousedown="handlePan(-1,0)" transform="rotate(270) translate(-36 17)" xlink:href="#dirArrow"><use fill="#404040" xlink:href="#rim"><set attributeName="fill" begin="arrowLeft.mouseover" end="arrowLeft.mouseout" to="#808080"/></use><path fill="none" stroke="#fff" stroke-width="1.5" d="M0,-3.0v7 M-2.5,-0.5L0,-3.0L2.5,-0.5"/></g></g><svg width="100%" height="30" preserveAspectRatio="xMaxYMin meet" viewBox="0 0 15 15"><g id="arrow_out" transform="scale(0.3 0.3)"><a target="_base" xlink:href="Component_8hpp__dep__incl_org.svg"><rect id="button" width="38" height="38" x="6" y="6" fill="#f2f5e9" fill-opacity=".5" stroke="#606060" stroke-width="1" rx="5" ry="5"/><path id="arrow" d="M 11.500037,31.436501 C 11.940474,20.09759 22.043105,11.32322 32.158766,21.979434 L 37.068811,17.246167 C 37.068811,17.246167 37.088388,32 37.088388,32 L 22.160133,31.978069 C 22.160133,31.978069 26.997745,27.140456 26.997745,27.140456 C 18.528582,18.264221 13.291696,25.230495 11.500037,31.436501 z" style="fill:#404040"/></a></g></svg></svg>