<?xml version="1.0" encoding="UTF-8" standalone="no"?>
<!DOCTYPE svg PUBLIC "-//W3C//DTD SVG 1.1//EN"
 "http://www.w3.org/Graphics/SVG/1.1/DTD/svg11.dtd">
<!-- Generated by graphviz version 2.44.0 ()
 -->
<!-- Title: includes/spic&#45;prj&#45;api/Component.hpp Pages: 1 -->
<svg width="841pt" height="240pt"
 viewBox="0.00 0.00 841.00 240.00" xmlns="http://www.w3.org/2000/svg" xmlns:xlink="http://www.w3.org/1999/xlink">
<g id="graph0" class="graph" transform="scale(1 1) rotate(0) translate(4 236)">
<title>includes/spic&#45;prj&#45;api/Component.hpp</title>
<!-- Node1 -->
<g id="node1" class="node">
<title>Node1</title>
<g id="a_node1"><a xlink:title=" ">
<polygon fill="#bfbfbf" stroke="black" points="287,-201.5 287,-231.5 390,-231.5 390,-201.5 287,-201.5"/>
<text text-anchor="start" x="295" y="-219.5" font-family="Helvetica,sans-Serif" font-size="10.00">includes/spic&#45;prj&#45;api</text>
<text text-anchor="middle" x="338.5" y="-208.5" font-family="Helvetica,sans-Serif" font-size="10.00">/Component.hpp</text>
</a>
</g>
</g>
<!-- Node2 -->
<g id="node2" class="node">
<title>Node2</title>
<g id="a_node2"><a xlink:href="Animator_8hpp.html" target="_top" xlink:title=" ">
<polygon fill="none" stroke="black" points="367,-67.5 367,-97.5 470,-97.5 470,-67.5 367,-67.5"/>
<text text-anchor="start" x="375" y="-85.5" font-family="Helvetica,sans-Serif" font-size="10.00">includes/spic&#45;prj&#45;api</text>
<text text-anchor="middle" x="418.5" y="-74.5" font-family="Helvetica,sans-Serif" font-size="10.00">/Animator.hpp</text>
</a>
</g>
</g>
<!-- Node1&#45;&gt;Node2 -->
<g id="edge1" class="edge">
<title>Node1&#45;&gt;Node2</title>
<path fill="none" stroke="midnightblue" d="M340.06,-191.22C342.1,-174.14 346.78,-151.33 357.5,-134 366.76,-119.04 382.01,-106.41 394.95,-97.53"/>
<polygon fill="midnightblue" stroke="midnightblue" points="336.55,-191.21 339.07,-201.5 343.52,-191.88 336.55,-191.21"/>
</g>
<!-- Node3 -->
<g id="node3" class="node">
<title>Node3</title>
<g id="a_node3"><a xlink:href="AudioSource_8hpp.html" target="_top" xlink:title=" ">
<polygon fill="none" stroke="black" points="86,-134.5 86,-164.5 189,-164.5 189,-134.5 86,-134.5"/>
<text text-anchor="start" x="94" y="-152.5" font-family="Helvetica,sans-Serif" font-size="10.00">includes/spic&#45;prj&#45;api</text>
<text text-anchor="middle" x="137.5" y="-141.5" font-family="Helvetica,sans-Serif" font-size="10.00">/AudioSource.hpp</text>
</a>
</g>
</g>
<!-- Node1&#45;&gt;Node3 -->
<g id="edge2" class="edge">
<title>Node1&#45;&gt;Node3</title>
<path fill="none" stroke="midnightblue" d="M285.09,-198.23C252.57,-187.71 211.56,-174.45 181.03,-164.58"/>
<polygon fill="midnightblue" stroke="midnightblue" points="284.29,-201.65 294.89,-201.4 286.45,-194.99 284.29,-201.65"/>
</g>
<!-- Node4 -->
<g id="node4" class="node">
<title>Node4</title>
<g id="a_node4"><a xlink:href="BehaviourScript_8hpp.html" target="_top" xlink:title=" ">
<polygon fill="none" stroke="black" points="0,-67.5 0,-97.5 107,-97.5 107,-67.5 0,-67.5"/>
<text text-anchor="start" x="8" y="-85.5" font-family="Helvetica,sans-Serif" font-size="10.00">includes/spic&#45;prj&#45;api</text>
<text text-anchor="middle" x="53.5" y="-74.5" font-family="Helvetica,sans-Serif" font-size="10.00">/BehaviourScript.hpp</text>
</a>
</g>
</g>
<!-- Node1&#45;&gt;Node4 -->
<g id="edge3" class="edge">
<title>Node1&#45;&gt;Node4</title>
<path fill="none" stroke="midnightblue" d="M276.63,-210.99C208.59,-204.79 105.09,-191.27 76.5,-165 57.55,-147.59 53.76,-115.9 53.26,-97.59"/>
<polygon fill="midnightblue" stroke="midnightblue" points="276.55,-214.5 286.81,-211.89 277.16,-207.53 276.55,-214.5"/>
</g>
<!-- Node5 -->
<g id="node5" class="node">
<title>Node5</title>
<g id="a_node5"><a xlink:href="Collider_8hpp.html" target="_top" xlink:title=" ">
<polygon fill="none" stroke="black" points="207,-134.5 207,-164.5 310,-164.5 310,-134.5 207,-134.5"/>
<text text-anchor="start" x="215" y="-152.5" font-family="Helvetica,sans-Serif" font-size="10.00">includes/spic&#45;prj&#45;api</text>
<text text-anchor="middle" x="258.5" y="-141.5" font-family="Helvetica,sans-Serif" font-size="10.00">/Collider.hpp</text>
</a>
</g>
</g>
<!-- Node1&#45;&gt;Node5 -->
<g id="edge4" class="edge">
<title>Node1&#45;&gt;Node5</title>
<path fill="none" stroke="midnightblue" d="M313.13,-194.88C300.97,-185.01 286.72,-173.43 275.82,-164.58"/>
<polygon fill="midnightblue" stroke="midnightblue" points="311.17,-197.81 321.14,-201.4 315.59,-192.37 311.17,-197.81"/>
</g>
<!-- Node8 -->
<g id="node8" class="node">
<title>Node8</title>
<g id="a_node8"><a xlink:href="GameObject_8hpp.html" target="_top" xlink:title=" ">
<polygon fill="none" stroke="black" points="609,-134.5 609,-164.5 712,-164.5 712,-134.5 609,-134.5"/>
<text text-anchor="start" x="617" y="-152.5" font-family="Helvetica,sans-Serif" font-size="10.00">includes/spic&#45;prj&#45;api</text>
<text text-anchor="middle" x="660.5" y="-141.5" font-family="Helvetica,sans-Serif" font-size="10.00">/GameObject.hpp</text>
</a>
</g>
</g>
<!-- Node1&#45;&gt;Node8 -->
<g id="edge8" class="edge">
<title>Node1&#45;&gt;Node8</title>
<path fill="none" stroke="midnightblue" d="M400.3,-204.43C453.5,-194.7 532.24,-179.82 600.5,-165 603.22,-164.41 606.01,-163.79 608.82,-163.15"/>
<polygon fill="midnightblue" stroke="midnightblue" points="399.56,-201.01 390.35,-206.24 400.81,-207.89 399.56,-201.01"/>
</g>
<!-- Node14 -->
<g id="node14" class="node">
<title>Node14</title>
<g id="a_node14"><a xlink:href="RigidBody_8hpp.html" target="_top" xlink:title=" ">
<polygon fill="none" stroke="black" points="488,-134.5 488,-164.5 591,-164.5 591,-134.5 488,-134.5"/>
<text text-anchor="start" x="496" y="-152.5" font-family="Helvetica,sans-Serif" font-size="10.00">includes/spic&#45;prj&#45;api</text>
<text text-anchor="middle" x="539.5" y="-141.5" font-family="Helvetica,sans-Serif" font-size="10.00">/RigidBody.hpp</text>
</a>
</g>
</g>
<!-- Node1&#45;&gt;Node14 -->
<g id="edge14" class="edge">
<title>Node1&#45;&gt;Node14</title>
<path fill="none" stroke="midnightblue" d="M391.91,-198.23C424.43,-187.71 465.44,-174.45 495.97,-164.58"/>
<polygon fill="midnightblue" stroke="midnightblue" points="390.55,-194.99 382.11,-201.4 392.71,-201.65 390.55,-194.99"/>
</g>
<!-- Node15 -->
<g id="node15" class="node">
<title>Node15</title>
<g id="a_node15"><a xlink:href="Sprite_8hpp.html" target="_top" xlink:title=" ">
<polygon fill="none" stroke="black" points="367,-134.5 367,-164.5 470,-164.5 470,-134.5 367,-134.5"/>
<text text-anchor="start" x="375" y="-152.5" font-family="Helvetica,sans-Serif" font-size="10.00">includes/spic&#45;prj&#45;api</text>
<text text-anchor="middle" x="418.5" y="-141.5" font-family="Helvetica,sans-Serif" font-size="10.00">/Sprite.hpp</text>
</a>
</g>
</g>
<!-- Node1&#45;&gt;Node15 -->
<g id="edge15" class="edge">
<title>Node1&#45;&gt;Node15</title>
<path fill="none" stroke="midnightblue" d="M363.87,-194.88C376.03,-185.01 390.28,-173.43 401.18,-164.58"/>
<polygon fill="midnightblue" stroke="midnightblue" points="361.41,-192.37 355.86,-201.4 365.83,-197.81 361.41,-192.37"/>
</g>
<!-- Node5&#45;&gt;Node4 -->
<g id="edge5" class="edge">
<title>Node5&#45;&gt;Node4</title>
<path fill="none" stroke="midnightblue" d="M204.71,-131.44C171.48,-120.91 129.35,-107.55 98,-97.61"/>
<polygon fill="midnightblue" stroke="midnightblue" points="203.68,-134.79 214.27,-134.48 205.8,-128.12 203.68,-134.79"/>
</g>
<!-- Node6 -->
<g id="node6" class="node">
<title>Node6</title>
<g id="a_node6"><a xlink:href="BoxCollider_8hpp.html" target="_top" xlink:title=" ">
<polygon fill="none" stroke="black" points="125,-67.5 125,-97.5 228,-97.5 228,-67.5 125,-67.5"/>
<text text-anchor="start" x="133" y="-85.5" font-family="Helvetica,sans-Serif" font-size="10.00">includes/spic&#45;prj&#45;api</text>
<text text-anchor="middle" x="176.5" y="-74.5" font-family="Helvetica,sans-Serif" font-size="10.00">/BoxCollider.hpp</text>
</a>
</g>
</g>
<!-- Node5&#45;&gt;Node6 -->
<g id="edge6" class="edge">
<title>Node5&#45;&gt;Node6</title>
<path fill="none" stroke="midnightblue" d="M232.85,-128.17C220.31,-118.23 205.53,-106.51 194.26,-97.58"/>
<polygon fill="midnightblue" stroke="midnightblue" points="230.7,-130.93 240.71,-134.4 235.04,-125.44 230.7,-130.93"/>
</g>
<!-- Node7 -->
<g id="node7" class="node">
<title>Node7</title>
<g id="a_node7"><a xlink:href="CircleCollider_8hpp.html" target="_top" xlink:title=" ">
<polygon fill="none" stroke="black" points="246,-67.5 246,-97.5 349,-97.5 349,-67.5 246,-67.5"/>
<text text-anchor="start" x="254" y="-85.5" font-family="Helvetica,sans-Serif" font-size="10.00">includes/spic&#45;prj&#45;api</text>
<text text-anchor="middle" x="297.5" y="-74.5" font-family="Helvetica,sans-Serif" font-size="10.00">/CircleCollider.hpp</text>
</a>
</g>
</g>
<!-- Node5&#45;&gt;Node7 -->
<g id="edge7" class="edge">
<title>Node5&#45;&gt;Node7</title>
<path fill="none" stroke="midnightblue" d="M272.25,-125.58C277.86,-116.24 284.15,-105.75 289.05,-97.58"/>
<polygon fill="midnightblue" stroke="midnightblue" points="269.11,-124.02 266.96,-134.4 275.11,-127.62 269.11,-124.02"/>
</g>
<!-- Node9 -->
<g id="node9" class="node">
<title>Node9</title>
<g id="a_node9"><a xlink:href="Camera_8hpp.html" target="_top" xlink:title=" ">
<polygon fill="none" stroke="black" points="730,-67.5 730,-97.5 833,-97.5 833,-67.5 730,-67.5"/>
<text text-anchor="start" x="738" y="-85.5" font-family="Helvetica,sans-Serif" font-size="10.00">includes/spic&#45;prj&#45;api</text>
<text text-anchor="middle" x="781.5" y="-74.5" font-family="Helvetica,sans-Serif" font-size="10.00">/Camera.hpp</text>
</a>
</g>
</g>
<!-- Node8&#45;&gt;Node9 -->
<g id="edge9" class="edge">
<title>Node8&#45;&gt;Node9</title>
<path fill="none" stroke="midnightblue" d="M695.73,-129.57C714.76,-119.35 737.87,-106.94 755.3,-97.58"/>
<polygon fill="midnightblue" stroke="midnightblue" points="693.91,-126.58 686.76,-134.4 697.22,-132.75 693.91,-126.58"/>
</g>
<!-- Node10 -->
<g id="node10" class="node">
<title>Node10</title>
<g id="a_node10"><a xlink:href="Scene_8hpp.html" target="_top" xlink:title=" ">
<polygon fill="none" stroke="black" points="488,-67.5 488,-97.5 591,-97.5 591,-67.5 488,-67.5"/>
<text text-anchor="start" x="496" y="-85.5" font-family="Helvetica,sans-Serif" font-size="10.00">includes/spic&#45;prj&#45;api</text>
<text text-anchor="middle" x="539.5" y="-74.5" font-family="Helvetica,sans-Serif" font-size="10.00">/Scene.hpp</text>
</a>
</g>
</g>
<!-- Node8&#45;&gt;Node10 -->
<g id="edge10" class="edge">
<title>Node8&#45;&gt;Node10</title>
<path fill="none" stroke="midnightblue" d="M625.27,-129.57C606.24,-119.35 583.13,-106.94 565.7,-97.58"/>
<polygon fill="midnightblue" stroke="midnightblue" points="623.78,-132.75 634.24,-134.4 627.09,-126.58 623.78,-132.75"/>
</g>
<!-- Node11 -->
<g id="node11" class="node">
<title>Node11</title>
<g id="a_node11"><a xlink:href="UIObject_8hpp.html" target="_top" xlink:title=" ">
<polygon fill="none" stroke="black" points="609,-67.5 609,-97.5 712,-97.5 712,-67.5 609,-67.5"/>
<text text-anchor="start" x="617" y="-85.5" font-family="Helvetica,sans-Serif" font-size="10.00">includes/spic&#45;prj&#45;api</text>
<text text-anchor="middle" x="660.5" y="-74.5" font-family="Helvetica,sans-Serif" font-size="10.00">/UIObject.hpp</text>
</a>
</g>
</g>
<!-- Node8&#45;&gt;Node11 -->
<g id="edge11" class="edge">
<title>Node8&#45;&gt;Node11</title>
<path fill="none" stroke="midnightblue" d="M660.5,-124.11C660.5,-115.15 660.5,-105.32 660.5,-97.58"/>
<polygon fill="midnightblue" stroke="midnightblue" points="657,-124.4 660.5,-134.4 664,-124.4 657,-124.4"/>
</g>
<!-- Node12 -->
<g id="node12" class="node">
<title>Node12</title>
<g id="a_node12"><a xlink:href="Button_8hpp.html" target="_top" xlink:title=" ">
<polygon fill="none" stroke="black" points="548,-0.5 548,-30.5 651,-30.5 651,-0.5 548,-0.5"/>
<text text-anchor="start" x="556" y="-18.5" font-family="Helvetica,sans-Serif" font-size="10.00">includes/spic&#45;prj&#45;api</text>
<text text-anchor="middle" x="599.5" y="-7.5" font-family="Helvetica,sans-Serif" font-size="10.00">/Button.hpp</text>
</a>
</g>
</g>
<!-- Node11&#45;&gt;Node12 -->
<g id="edge12" class="edge">
<title>Node11&#45;&gt;Node12</title>
<path fill="none" stroke="midnightblue" d="M640.35,-60.02C631.26,-50.34 620.78,-39.17 612.71,-30.58"/>
<polygon fill="midnightblue" stroke="midnightblue" points="637.87,-62.5 647.26,-67.4 642.97,-57.71 637.87,-62.5"/>
</g>
<!-- Node13 -->
<g id="node13" class="node">
<title>Node13</title>
<g id="a_node13"><a xlink:href="Text_8hpp.html" target="_top" xlink:title=" ">
<polygon fill="none" stroke="black" points="669,-0.5 669,-30.5 772,-30.5 772,-0.5 669,-0.5"/>
<text text-anchor="start" x="677" y="-18.5" font-family="Helvetica,sans-Serif" font-size="10.00">includes/spic&#45;prj&#45;api</text>
<text text-anchor="middle" x="720.5" y="-7.5" font-family="Helvetica,sans-Serif" font-size="10.00">/Text.hpp</text>
</a>
</g>
</g>
<!-- Node11&#45;&gt;Node13 -->
<g id="edge13" class="edge">
<title>Node11&#45;&gt;Node13</title>
<path fill="none" stroke="midnightblue" d="M680.32,-60.02C689.26,-50.34 699.57,-39.17 707.51,-30.58"/>
<polygon fill="midnightblue" stroke="midnightblue" points="677.73,-57.67 673.52,-67.4 682.87,-62.42 677.73,-57.67"/>
</g>
<!-- Node15&#45;&gt;Node2 -->
<g id="edge16" class="edge">
<title>Node15&#45;&gt;Node2</title>
<path fill="none" stroke="midnightblue" d="M418.5,-124.11C418.5,-115.15 418.5,-105.32 418.5,-97.58"/>
<polygon fill="midnightblue" stroke="midnightblue" points="415,-124.4 418.5,-134.4 422,-124.4 415,-124.4"/>
</g>
</g>
</svg>
