<svg xmlns="http://www.w3.org/2000/svg" xmlns:xlink="http://www.w3.org/1999/xlink" width="284pt" height="95pt" viewBox="0 0 283.5 95"><g id="graph0" class="graph" transform="scale(1 1) rotate(0) translate(4 91)"><title>includes/spic-prj-api/GameObject.hpp</title><g id="node1" class="node"><title>Node1</title><g id="a_node1"><a><polygon fill="#bfbfbf" stroke="#000" points="101.5 -56.5 101.5 -86.5 204.5 -86.5 204.5 -56.5 101.5 -56.5"/><text x="109.5" y="-74.5" font-family="Helvetica,sans-Serif" font-size="10" text-anchor="start">includes/spic-prj-api</text><text x="153" y="-63.5" font-family="Helvetica,sans-Serif" font-size="10" text-anchor="middle">/GameObject.hpp</text></a></g></g><g id="node2" class="node"><title>Node2</title><g id="a_node2"><a target="_top" xlink:href="Component_8hpp.html"><polygon fill="none" stroke="#000" points="0 -.5 0 -19.5 84 -19.5 84 -.5 0 -.5"/><text x="42" y="-7.5" font-family="Helvetica,sans-Serif" font-size="10" text-anchor="middle">Component.hpp</text></a></g></g><g id="edge1" class="edge"><title>Node1-&gt;Node2</title><path fill="none" stroke="#191970" d="M126.69,-56.4C108.74,-46.77 85.08,-34.09 67.33,-24.58"/><polygon fill="#191970" stroke="#191970" points="68.62 -21.3 58.15 -19.66 65.31 -27.47 68.62 -21.3"/></g><g id="node3" class="node"><title>Node3</title><g id="a_node3"><a><polygon fill="none" stroke="#bfbfbf" points="102.5 -.5 102.5 -19.5 143.5 -19.5 143.5 -.5 102.5 -.5"/><text x="123" y="-7.5" font-family="Helvetica,sans-Serif" font-size="10" text-anchor="middle">string</text></a></g></g><g id="edge2" class="edge"><title>Node1-&gt;Node3</title><path fill="none" stroke="#191970" d="M145.89,-56.4C141.71,-48.11 136.39,-37.55 131.93,-28.71"/><polygon fill="#191970" stroke="#191970" points="134.99 -27.01 127.37 -19.66 128.74 -30.16 134.99 -27.01"/></g><g id="node4" class="node"><title>Node4</title><g id="a_node4"><a><polygon fill="none" stroke="#bfbfbf" points="162 -.5 162 -19.5 206 -19.5 206 -.5 162 -.5"/><text x="184" y="-7.5" font-family="Helvetica,sans-Serif" font-size="10" text-anchor="middle">vector</text></a></g></g><g id="edge3" class="edge"><title>Node1-&gt;Node4</title><path fill="none" stroke="#191970" d="M160.35,-56.4C164.67,-48.11 170.17,-37.55 174.77,-28.71"/><polygon fill="#191970" stroke="#191970" points="177.97 -30.14 179.49 -19.66 171.76 -26.91 177.97 -30.14"/></g><g id="node5" class="node"><title>Node5</title><g id="a_node5"><a><polygon fill="none" stroke="#bfbfbf" points="224.5 -.5 224.5 -19.5 275.5 -19.5 275.5 -.5 224.5 -.5"/><text x="250" y="-7.5" font-family="Helvetica,sans-Serif" font-size="10" text-anchor="middle">memory</text></a></g></g><g id="edge4" class="edge"><title>Node1-&gt;Node5</title><path fill="none" stroke="#191970" d="M175.99,-56.4C191.39,-46.95 211.59,-34.56 227,-25.11"/><polygon fill="#191970" stroke="#191970" points="229.19 -27.87 235.89 -19.66 225.53 -21.9 229.19 -27.87"/></g></g></svg>