<svg xmlns="http://www.w3.org/2000/svg" xmlns:xlink="http://www.w3.org/1999/xlink" width="413pt" height="173pt" viewBox="0 0 413 173"><g id="graph0" class="graph" transform="scale(1 1) rotate(0) translate(4 169)"><title>includes/spic-prj-api/GameObject.hpp</title><g id="node1" class="node"><title>Node1</title><g id="a_node1"><a><polygon fill="#bfbfbf" stroke="#000" points="121 -134.5 121 -164.5 224 -164.5 224 -134.5 121 -134.5"/><text x="129" y="-152.5" font-family="Helvetica,sans-Serif" font-size="10" text-anchor="start">includes/spic-prj-api</text><text x="172.5" y="-141.5" font-family="Helvetica,sans-Serif" font-size="10" text-anchor="middle">/GameObject.hpp</text></a></g></g><g id="node2" class="node"><title>Node2</title><g id="a_node2"><a target="_top" xlink:href="Camera_8hpp.html"><polygon fill="none" stroke="#000" points="0 -67.5 0 -97.5 103 -97.5 103 -67.5 0 -67.5"/><text x="8" y="-85.5" font-family="Helvetica,sans-Serif" font-size="10" text-anchor="start">includes/spic-prj-api</text><text x="51.5" y="-74.5" font-family="Helvetica,sans-Serif" font-size="10" text-anchor="middle">/Camera.hpp</text></a></g></g><g id="edge1" class="edge"><title>Node1-&gt;Node2</title><path fill="none" stroke="#191970" d="M137.27,-129.57C118.24,-119.35 95.13,-106.94 77.7,-97.58"/><polygon fill="#191970" stroke="#191970" points="135.78 -132.75 146.24 -134.4 139.09 -126.58 135.78 -132.75"/></g><g id="node3" class="node"><title>Node3</title><g id="a_node3"><a target="_top" xlink:href="Scene_8hpp.html"><polygon fill="none" stroke="#000" points="121 -67.5 121 -97.5 224 -97.5 224 -67.5 121 -67.5"/><text x="129" y="-85.5" font-family="Helvetica,sans-Serif" font-size="10" text-anchor="start">includes/spic-prj-api</text><text x="172.5" y="-74.5" font-family="Helvetica,sans-Serif" font-size="10" text-anchor="middle">/Scene.hpp</text></a></g></g><g id="edge2" class="edge"><title>Node1-&gt;Node3</title><path fill="none" stroke="#191970" d="M172.5,-124.11C172.5,-115.15 172.5,-105.32 172.5,-97.58"/><polygon fill="#191970" stroke="#191970" points="169 -124.4 172.5 -134.4 176 -124.4 169 -124.4"/></g><g id="node4" class="node"><title>Node4</title><g id="a_node4"><a target="_top" xlink:href="UIObject_8hpp.html"><polygon fill="none" stroke="#000" points="242 -67.5 242 -97.5 345 -97.5 345 -67.5 242 -67.5"/><text x="250" y="-85.5" font-family="Helvetica,sans-Serif" font-size="10" text-anchor="start">includes/spic-prj-api</text><text x="293.5" y="-74.5" font-family="Helvetica,sans-Serif" font-size="10" text-anchor="middle">/UIObject.hpp</text></a></g></g><g id="edge3" class="edge"><title>Node1-&gt;Node4</title><path fill="none" stroke="#191970" d="M207.73,-129.57C226.76,-119.35 249.87,-106.94 267.3,-97.58"/><polygon fill="#191970" stroke="#191970" points="205.91 -126.58 198.76 -134.4 209.22 -132.75 205.91 -126.58"/></g><g id="node5" class="node"><title>Node5</title><g id="a_node5"><a target="_top" xlink:href="Button_8hpp.html"><polygon fill="none" stroke="#000" points="181 -.5 181 -30.5 284 -30.5 284 -.5 181 -.5"/><text x="189" y="-18.5" font-family="Helvetica,sans-Serif" font-size="10" text-anchor="start">includes/spic-prj-api</text><text x="232.5" y="-7.5" font-family="Helvetica,sans-Serif" font-size="10" text-anchor="middle">/Button.hpp</text></a></g></g><g id="edge4" class="edge"><title>Node4-&gt;Node5</title><path fill="none" stroke="#191970" d="M273.35,-60.02C264.26,-50.34 253.78,-39.17 245.71,-30.58"/><polygon fill="#191970" stroke="#191970" points="270.87 -62.5 280.26 -67.4 275.97 -57.71 270.87 -62.5"/></g><g id="node6" class="node"><title>Node6</title><g id="a_node6"><a target="_top" xlink:href="Text_8hpp.html"><polygon fill="none" stroke="#000" points="302 -.5 302 -30.5 405 -30.5 405 -.5 302 -.5"/><text x="310" y="-18.5" font-family="Helvetica,sans-Serif" font-size="10" text-anchor="start">includes/spic-prj-api</text><text x="353.5" y="-7.5" font-family="Helvetica,sans-Serif" font-size="10" text-anchor="middle">/Text.hpp</text></a></g></g><g id="edge5" class="edge"><title>Node4-&gt;Node6</title><path fill="none" stroke="#191970" d="M313.32,-60.02C322.26,-50.34 332.57,-39.17 340.51,-30.58"/><polygon fill="#191970" stroke="#191970" points="310.73 -57.67 306.52 -67.4 315.87 -62.42 310.73 -57.67"/></g></g></svg>