<svg xmlns="http://www.w3.org/2000/svg" xmlns:xlink="http://www.w3.org/1999/xlink" width="124pt" height="95pt" viewBox="0 0 124 95"><g id="graph0" class="graph" transform="scale(1 1) rotate(0) translate(4 91)"><title>includes/spic-prj-api/Input.hpp</title><g id="node1" class="node"><title>Node1</title><g id="a_node1"><a><polygon fill="#bfbfbf" stroke="#000" points="10 -56.5 10 -86.5 113 -86.5 113 -56.5 10 -56.5"/><text x="18" y="-74.5" font-family="Helvetica,sans-Serif" font-size="10" text-anchor="start">includes/spic-prj-api</text><text x="61.5" y="-63.5" font-family="Helvetica,sans-Serif" font-size="10" text-anchor="middle">/Input.hpp</text></a></g></g><g id="node2" class="node"><title>Node2</title><g id="a_node2"><a target="_top" xlink:href="Point_8hpp.html"><polygon fill="none" stroke="#000" points="0 -.5 0 -19.5 57 -19.5 57 -.5 0 -.5"/><text x="28.5" y="-7.5" font-family="Helvetica,sans-Serif" font-size="10" text-anchor="middle">Point.hpp</text></a></g></g><g id="edge1" class="edge"><title>Node1-&gt;Node2</title><path fill="none" stroke="#191970" d="M53.68,-56.4C49.03,-48.02 43.1,-37.33 38.16,-28.42"/><polygon fill="#191970" stroke="#191970" points="41.21 -26.71 33.3 -19.66 35.09 -30.1 41.21 -26.71"/></g><g id="node3" class="node"><title>Node3</title><g id="a_node3"><a><polygon fill="none" stroke="#bfbfbf" points="75 -.5 75 -19.5 116 -19.5 116 -.5 75 -.5"/><text x="95.5" y="-7.5" font-family="Helvetica,sans-Serif" font-size="10" text-anchor="middle">string</text></a></g></g><g id="edge2" class="edge"><title>Node1-&gt;Node3</title><path fill="none" stroke="#191970" d="M69.56,-56.4C74.35,-48.02 80.46,-37.33 85.54,-28.42"/><polygon fill="#191970" stroke="#191970" points="88.63 -30.08 90.55 -19.66 82.55 -26.6 88.63 -30.08"/></g></g></svg>