<svg xmlns="http://www.w3.org/2000/svg" xmlns:xlink="http://www.w3.org/1999/xlink" width="632" height="106pt" viewBox="0 0 474 106"><g id="graph0" class="graph" transform="scale(1 1) rotate(0) translate(4 102)"><title>includes/spic-prj-api/Point.hpp</title><g id="node1" class="node"><title>Node1</title><g id="a_node1"><a><polygon fill="#bfbfbf" stroke="#000" points="181 -67.5 181 -97.5 284 -97.5 284 -67.5 181 -67.5"/><text x="189" y="-85.5" font-family="Helvetica,sans-Serif" font-size="10" text-anchor="start">includes/spic-prj-api</text><text x="232.5" y="-74.5" font-family="Helvetica,sans-Serif" font-size="10" text-anchor="middle">/Point.hpp</text></a></g></g><g id="node2" class="node"><title>Node2</title><g id="a_node2"><a target="_top" xlink:href="Debug_8hpp.html"><polygon fill="none" stroke="#000" points="0 -.5 0 -30.5 103 -30.5 103 -.5 0 -.5"/><text x="8" y="-18.5" font-family="Helvetica,sans-Serif" font-size="10" text-anchor="start">includes/spic-prj-api</text><text x="51.5" y="-7.5" font-family="Helvetica,sans-Serif" font-size="10" text-anchor="middle">/Debug.hpp</text></a></g></g><g id="edge1" class="edge"><title>Node1-&gt;Node2</title><path fill="none" stroke="#191970" d="M183.64,-63.96C154.49,-53.48 117.96,-40.37 90.7,-30.58"/><polygon fill="#191970" stroke="#191970" points="182.63 -67.31 193.23 -67.4 185 -60.72 182.63 -67.31"/></g><g id="node3" class="node"><title>Node3</title><g id="a_node3"><a target="_top" xlink:href="Input_8hpp.html"><polygon fill="none" stroke="#000" points="121 -.5 121 -30.5 224 -30.5 224 -.5 121 -.5"/><text x="129" y="-18.5" font-family="Helvetica,sans-Serif" font-size="10" text-anchor="start">includes/spic-prj-api</text><text x="172.5" y="-7.5" font-family="Helvetica,sans-Serif" font-size="10" text-anchor="middle">/Input.hpp</text></a></g></g><g id="edge2" class="edge"><title>Node1-&gt;Node3</title><path fill="none" stroke="#191970" d="M212.68,-60.02C203.74,-50.34 193.43,-39.17 185.49,-30.58"/><polygon fill="#191970" stroke="#191970" points="210.13 -62.42 219.48 -67.4 215.27 -57.67 210.13 -62.42"/></g><g id="node4" class="node"><title>Node4</title><g id="a_node4"><a target="_top" xlink:href="RigidBody_8hpp.html"><polygon fill="none" stroke="#000" points="242 -.5 242 -30.5 345 -30.5 345 -.5 242 -.5"/><text x="250" y="-18.5" font-family="Helvetica,sans-Serif" font-size="10" text-anchor="start">includes/spic-prj-api</text><text x="293.5" y="-7.5" font-family="Helvetica,sans-Serif" font-size="10" text-anchor="middle">/RigidBody.hpp</text></a></g></g><g id="edge3" class="edge"><title>Node1-&gt;Node4</title><path fill="none" stroke="#191970" d="M252.65,-60.02C261.74,-50.34 272.22,-39.17 280.29,-30.58"/><polygon fill="#191970" stroke="#191970" points="250.03 -57.71 245.74 -67.4 255.13 -62.5 250.03 -57.71"/></g><g id="node5" class="node"><title>Node5</title><g id="a_node5"><a target="_top" xlink:href="Transform_8hpp.html"><polygon fill="none" stroke="#000" points="363 -.5 363 -30.5 466 -30.5 466 -.5 363 -.5"/><text x="371" y="-18.5" font-family="Helvetica,sans-Serif" font-size="10" text-anchor="start">includes/spic-prj-api</text><text x="414.5" y="-7.5" font-family="Helvetica,sans-Serif" font-size="10" text-anchor="middle">/Transform.hpp</text></a></g></g><g id="edge4" class="edge"><title>Node1-&gt;Node5</title><path fill="none" stroke="#191970" d="M281.63,-63.96C310.94,-53.48 347.68,-40.37 375.09,-30.58"/><polygon fill="#191970" stroke="#191970" points="280.23 -60.74 271.99 -67.4 282.59 -67.33 280.23 -60.74"/></g></g></svg>