<?xml version="1.0" encoding="UTF-8" standalone="no"?>
<!DOCTYPE svg PUBLIC "-//W3C//DTD SVG 1.1//EN"
 "http://www.w3.org/Graphics/SVG/1.1/DTD/svg11.dtd">
<!-- Generated by graphviz version 2.44.0 ()
 -->
<!-- Title: includes/spic&#45;prj&#45;api/Point.hpp Pages: 1 -->
<svg width="474pt" height="106pt"
 viewBox="0.00 0.00 474.00 106.00" xmlns="http://www.w3.org/2000/svg" xmlns:xlink="http://www.w3.org/1999/xlink">
<g id="graph0" class="graph" transform="scale(1 1) rotate(0) translate(4 102)">
<title>includes/spic&#45;prj&#45;api/Point.hpp</title>
<!-- Node1 -->
<g id="node1" class="node">
<title>Node1</title>
<g id="a_node1"><a xlink:title=" ">
<polygon fill="#bfbfbf" stroke="black" points="181,-67.5 181,-97.5 284,-97.5 284,-67.5 181,-67.5"/>
<text text-anchor="start" x="189" y="-85.5" font-family="Helvetica,sans-Serif" font-size="10.00">includes/spic&#45;prj&#45;api</text>
<text text-anchor="middle" x="232.5" y="-74.5" font-family="Helvetica,sans-Serif" font-size="10.00">/Point.hpp</text>
</a>
</g>
</g>
<!-- Node2 -->
<g id="node2" class="node">
<title>Node2</title>
<g id="a_node2"><a xlink:href="Debug_8hpp.html" target="_top" xlink:title=" ">
<polygon fill="none" stroke="black" points="0,-0.5 0,-30.5 103,-30.5 103,-0.5 0,-0.5"/>
<text text-anchor="start" x="8" y="-18.5" font-family="Helvetica,sans-Serif" font-size="10.00">includes/spic&#45;prj&#45;api</text>
<text text-anchor="middle" x="51.5" y="-7.5" font-family="Helvetica,sans-Serif" font-size="10.00">/Debug.hpp</text>
</a>
</g>
</g>
<!-- Node1&#45;&gt;Node2 -->
<g id="edge1" class="edge">
<title>Node1&#45;&gt;Node2</title>
<path fill="none" stroke="midnightblue" d="M183.64,-63.96C154.49,-53.48 117.96,-40.37 90.7,-30.58"/>
<polygon fill="midnightblue" stroke="midnightblue" points="182.63,-67.31 193.23,-67.4 185,-60.72 182.63,-67.31"/>
</g>
<!-- Node3 -->
<g id="node3" class="node">
<title>Node3</title>
<g id="a_node3"><a xlink:href="Input_8hpp.html" target="_top" xlink:title=" ">
<polygon fill="none" stroke="black" points="121,-0.5 121,-30.5 224,-30.5 224,-0.5 121,-0.5"/>
<text text-anchor="start" x="129" y="-18.5" font-family="Helvetica,sans-Serif" font-size="10.00">includes/spic&#45;prj&#45;api</text>
<text text-anchor="middle" x="172.5" y="-7.5" font-family="Helvetica,sans-Serif" font-size="10.00">/Input.hpp</text>
</a>
</g>
</g>
<!-- Node1&#45;&gt;Node3 -->
<g id="edge2" class="edge">
<title>Node1&#45;&gt;Node3</title>
<path fill="none" stroke="midnightblue" d="M212.68,-60.02C203.74,-50.34 193.43,-39.17 185.49,-30.58"/>
<polygon fill="midnightblue" stroke="midnightblue" points="210.13,-62.42 219.48,-67.4 215.27,-57.67 210.13,-62.42"/>
</g>
<!-- Node4 -->
<g id="node4" class="node">
<title>Node4</title>
<g id="a_node4"><a xlink:href="RigidBody_8hpp.html" target="_top" xlink:title=" ">
<polygon fill="none" stroke="black" points="242,-0.5 242,-30.5 345,-30.5 345,-0.5 242,-0.5"/>
<text text-anchor="start" x="250" y="-18.5" font-family="Helvetica,sans-Serif" font-size="10.00">includes/spic&#45;prj&#45;api</text>
<text text-anchor="middle" x="293.5" y="-7.5" font-family="Helvetica,sans-Serif" font-size="10.00">/RigidBody.hpp</text>
</a>
</g>
</g>
<!-- Node1&#45;&gt;Node4 -->
<g id="edge3" class="edge">
<title>Node1&#45;&gt;Node4</title>
<path fill="none" stroke="midnightblue" d="M252.65,-60.02C261.74,-50.34 272.22,-39.17 280.29,-30.58"/>
<polygon fill="midnightblue" stroke="midnightblue" points="250.03,-57.71 245.74,-67.4 255.13,-62.5 250.03,-57.71"/>
</g>
<!-- Node5 -->
<g id="node5" class="node">
<title>Node5</title>
<g id="a_node5"><a xlink:href="Transform_8hpp.html" target="_top" xlink:title=" ">
<polygon fill="none" stroke="black" points="363,-0.5 363,-30.5 466,-30.5 466,-0.5 363,-0.5"/>
<text text-anchor="start" x="371" y="-18.5" font-family="Helvetica,sans-Serif" font-size="10.00">includes/spic&#45;prj&#45;api</text>
<text text-anchor="middle" x="414.5" y="-7.5" font-family="Helvetica,sans-Serif" font-size="10.00">/Transform.hpp</text>
</a>
</g>
</g>
<!-- Node1&#45;&gt;Node5 -->
<g id="edge4" class="edge">
<title>Node1&#45;&gt;Node5</title>
<path fill="none" stroke="midnightblue" d="M281.63,-63.96C310.94,-53.48 347.68,-40.37 375.09,-30.58"/>
<polygon fill="midnightblue" stroke="midnightblue" points="280.23,-60.74 271.99,-67.4 282.59,-67.33 280.23,-60.74"/>
</g>
</g>
</svg>
