<svg xmlns="http://www.w3.org/2000/svg" xmlns:xlink="http://www.w3.org/1999/xlink" width="224" height="95pt" viewBox="0 0 167.5 95"><g id="graph0" class="graph" transform="scale(1 1) rotate(0) translate(4 91)"><title>includes/spic-prj-api/RigidBody.hpp</title><g id="node1" class="node"><title>Node1</title><g id="a_node1"><a><polygon fill="#bfbfbf" stroke="#000" points="34.5 -56.5 34.5 -86.5 137.5 -86.5 137.5 -56.5 34.5 -56.5"/><text x="42.5" y="-74.5" font-family="Helvetica,sans-Serif" font-size="10" text-anchor="start">includes/spic-prj-api</text><text x="86" y="-63.5" font-family="Helvetica,sans-Serif" font-size="10" text-anchor="middle">/RigidBody.hpp</text></a></g></g><g id="node2" class="node"><title>Node2</title><g id="a_node2"><a target="_top" xlink:href="Component_8hpp.html"><polygon fill="none" stroke="#000" points="0 -.5 0 -19.5 84 -19.5 84 -.5 0 -.5"/><text x="42" y="-7.5" font-family="Helvetica,sans-Serif" font-size="10" text-anchor="middle">Component.hpp</text></a></g></g><g id="edge1" class="edge"><title>Node1-&gt;Node2</title><path fill="none" stroke="#191970" d="M75.57,-56.4C69.24,-47.84 61.13,-36.87 54.47,-27.86"/><polygon fill="#191970" stroke="#191970" points="57.16 -25.62 48.4 -19.66 51.53 -29.78 57.16 -25.62"/></g><g id="node3" class="node"><title>Node3</title><g id="a_node3"><a target="_top" xlink:href="Point_8hpp.html"><polygon fill="none" stroke="#000" points="102.5 -.5 102.5 -19.5 159.5 -19.5 159.5 -.5 102.5 -.5"/><text x="131" y="-7.5" font-family="Helvetica,sans-Serif" font-size="10" text-anchor="middle">Point.hpp</text></a></g></g><g id="edge2" class="edge"><title>Node1-&gt;Node3</title><path fill="none" stroke="#191970" d="M96.66,-56.4C103.14,-47.84 111.43,-36.87 118.25,-27.86"/><polygon fill="#191970" stroke="#191970" points="121.21 -29.74 124.45 -19.66 115.63 -25.52 121.21 -29.74"/></g></g></svg>