<?xml version="1.0" encoding="UTF-8" standalone="no"?>
<!DOCTYPE svg PUBLIC "-//W3C//DTD SVG 1.1//EN"
 "http://www.w3.org/Graphics/SVG/1.1/DTD/svg11.dtd">
<!-- Generated by graphviz version 2.44.0 ()
 -->
<!-- Title: includes/spic&#45;prj&#45;api/Scene.hpp Pages: 1 -->
<svg width="284pt" height="151pt"
 viewBox="0.00 0.00 283.50 151.00" xmlns="http://www.w3.org/2000/svg" xmlns:xlink="http://www.w3.org/1999/xlink">
<g id="graph0" class="graph" transform="scale(1 1) rotate(0) translate(4 147)">
<title>includes/spic&#45;prj&#45;api/Scene.hpp</title>
<!-- Node1 -->
<g id="node1" class="node">
<title>Node1</title>
<g id="a_node1"><a xlink:title=" ">
<polygon fill="#bfbfbf" stroke="black" points="101.5,-112.5 101.5,-142.5 204.5,-142.5 204.5,-112.5 101.5,-112.5"/>
<text text-anchor="start" x="109.5" y="-130.5" font-family="Helvetica,sans-Serif" font-size="10.00">includes/spic&#45;prj&#45;api</text>
<text text-anchor="middle" x="153" y="-119.5" font-family="Helvetica,sans-Serif" font-size="10.00">/Scene.hpp</text>
</a>
</g>
</g>
<!-- Node2 -->
<g id="node2" class="node">
<title>Node2</title>
<g id="a_node2"><a xlink:href="GameObject_8hpp.html" target="_top" xlink:title=" ">
<polygon fill="none" stroke="black" points="108.5,-56.5 108.5,-75.5 197.5,-75.5 197.5,-56.5 108.5,-56.5"/>
<text text-anchor="middle" x="153" y="-63.5" font-family="Helvetica,sans-Serif" font-size="10.00">GameObject.hpp</text>
</a>
</g>
</g>
<!-- Node1&#45;&gt;Node2 -->
<g id="edge1" class="edge">
<title>Node1&#45;&gt;Node2</title>
<path fill="none" stroke="midnightblue" d="M153,-112.4C153,-104.47 153,-94.46 153,-85.86"/>
<polygon fill="midnightblue" stroke="midnightblue" points="156.5,-85.66 153,-75.66 149.5,-85.66 156.5,-85.66"/>
</g>
<!-- Node3 -->
<g id="node3" class="node">
<title>Node3</title>
<g id="a_node3"><a xlink:href="Component_8hpp.html" target="_top" xlink:title=" ">
<polygon fill="none" stroke="black" points="0,-0.5 0,-19.5 84,-19.5 84,-0.5 0,-0.5"/>
<text text-anchor="middle" x="42" y="-7.5" font-family="Helvetica,sans-Serif" font-size="10.00">Component.hpp</text>
</a>
</g>
</g>
<!-- Node2&#45;&gt;Node3 -->
<g id="edge2" class="edge">
<title>Node2&#45;&gt;Node3</title>
<path fill="none" stroke="midnightblue" d="M135.17,-56.32C117.28,-47.62 89.52,-34.12 68.95,-24.11"/>
<polygon fill="midnightblue" stroke="midnightblue" points="70.31,-20.88 59.79,-19.65 67.25,-27.18 70.31,-20.88"/>
</g>
<!-- Node4 -->
<g id="node4" class="node">
<title>Node4</title>
<g id="a_node4"><a xlink:title=" ">
<polygon fill="none" stroke="#bfbfbf" points="102.5,-0.5 102.5,-19.5 143.5,-19.5 143.5,-0.5 102.5,-0.5"/>
<text text-anchor="middle" x="123" y="-7.5" font-family="Helvetica,sans-Serif" font-size="10.00">string</text>
</a>
</g>
</g>
<!-- Node2&#45;&gt;Node4 -->
<g id="edge3" class="edge">
<title>Node2&#45;&gt;Node4</title>
<path fill="none" stroke="midnightblue" d="M148.05,-56.08C143.9,-48.61 137.85,-37.72 132.73,-28.52"/>
<polygon fill="midnightblue" stroke="midnightblue" points="135.78,-26.79 127.86,-19.75 129.66,-30.19 135.78,-26.79"/>
</g>
<!-- Node5 -->
<g id="node5" class="node">
<title>Node5</title>
<g id="a_node5"><a xlink:title=" ">
<polygon fill="none" stroke="#bfbfbf" points="162,-0.5 162,-19.5 206,-19.5 206,-0.5 162,-0.5"/>
<text text-anchor="middle" x="184" y="-7.5" font-family="Helvetica,sans-Serif" font-size="10.00">vector</text>
</a>
</g>
</g>
<!-- Node2&#45;&gt;Node5 -->
<g id="edge4" class="edge">
<title>Node2&#45;&gt;Node5</title>
<path fill="none" stroke="midnightblue" d="M158.12,-56.08C162.41,-48.61 168.66,-37.72 173.94,-28.52"/>
<polygon fill="midnightblue" stroke="midnightblue" points="177.03,-30.17 178.98,-19.75 170.96,-26.68 177.03,-30.17"/>
</g>
<!-- Node6 -->
<g id="node6" class="node">
<title>Node6</title>
<g id="a_node6"><a xlink:title=" ">
<polygon fill="none" stroke="#bfbfbf" points="224.5,-0.5 224.5,-19.5 275.5,-19.5 275.5,-0.5 224.5,-0.5"/>
<text text-anchor="middle" x="250" y="-7.5" font-family="Helvetica,sans-Serif" font-size="10.00">memory</text>
</a>
</g>
</g>
<!-- Node2&#45;&gt;Node6 -->
<g id="edge5" class="edge">
<title>Node2&#45;&gt;Node6</title>
<path fill="none" stroke="midnightblue" d="M168.58,-56.32C184,-47.74 207.81,-34.49 225.71,-24.52"/>
<polygon fill="midnightblue" stroke="midnightblue" points="227.42,-27.58 234.45,-19.65 224.01,-21.46 227.42,-27.58"/>
</g>
</g>
</svg>
