<svg xmlns="http://www.w3.org/2000/svg" xmlns:xlink="http://www.w3.org/1999/xlink" width="284pt" height="151pt" viewBox="0 0 283.5 151"><g id="graph0" class="graph" transform="scale(1 1) rotate(0) translate(4 147)"><title>includes/spic-prj-api/Scene.hpp</title><g id="node1" class="node"><title>Node1</title><g id="a_node1"><a><polygon fill="#bfbfbf" stroke="#000" points="101.5 -112.5 101.5 -142.5 204.5 -142.5 204.5 -112.5 101.5 -112.5"/><text x="109.5" y="-130.5" font-family="Helvetica,sans-Serif" font-size="10" text-anchor="start">includes/spic-prj-api</text><text x="153" y="-119.5" font-family="Helvetica,sans-Serif" font-size="10" text-anchor="middle">/Scene.hpp</text></a></g></g><g id="node2" class="node"><title>Node2</title><g id="a_node2"><a target="_top" xlink:href="GameObject_8hpp.html"><polygon fill="none" stroke="#000" points="108.5 -56.5 108.5 -75.5 197.5 -75.5 197.5 -56.5 108.5 -56.5"/><text x="153" y="-63.5" font-family="Helvetica,sans-Serif" font-size="10" text-anchor="middle">GameObject.hpp</text></a></g></g><g id="edge1" class="edge"><title>Node1-&gt;Node2</title><path fill="none" stroke="#191970" d="M153,-112.4C153,-104.47 153,-94.46 153,-85.86"/><polygon fill="#191970" stroke="#191970" points="156.5 -85.66 153 -75.66 149.5 -85.66 156.5 -85.66"/></g><g id="node3" class="node"><title>Node3</title><g id="a_node3"><a target="_top" xlink:href="Component_8hpp.html"><polygon fill="none" stroke="#000" points="0 -.5 0 -19.5 84 -19.5 84 -.5 0 -.5"/><text x="42" y="-7.5" font-family="Helvetica,sans-Serif" font-size="10" text-anchor="middle">Component.hpp</text></a></g></g><g id="edge2" class="edge"><title>Node2-&gt;Node3</title><path fill="none" stroke="#191970" d="M135.17,-56.32C117.28,-47.62 89.52,-34.12 68.95,-24.11"/><polygon fill="#191970" stroke="#191970" points="70.31 -20.88 59.79 -19.65 67.25 -27.18 70.31 -20.88"/></g><g id="node4" class="node"><title>Node4</title><g id="a_node4"><a><polygon fill="none" stroke="#bfbfbf" points="102.5 -.5 102.5 -19.5 143.5 -19.5 143.5 -.5 102.5 -.5"/><text x="123" y="-7.5" font-family="Helvetica,sans-Serif" font-size="10" text-anchor="middle">string</text></a></g></g><g id="edge3" class="edge"><title>Node2-&gt;Node4</title><path fill="none" stroke="#191970" d="M148.05,-56.08C143.9,-48.61 137.85,-37.72 132.73,-28.52"/><polygon fill="#191970" stroke="#191970" points="135.78 -26.79 127.86 -19.75 129.66 -30.19 135.78 -26.79"/></g><g id="node5" class="node"><title>Node5</title><g id="a_node5"><a><polygon fill="none" stroke="#bfbfbf" points="162 -.5 162 -19.5 206 -19.5 206 -.5 162 -.5"/><text x="184" y="-7.5" font-family="Helvetica,sans-Serif" font-size="10" text-anchor="middle">vector</text></a></g></g><g id="edge4" class="edge"><title>Node2-&gt;Node5</title><path fill="none" stroke="#191970" d="M158.12,-56.08C162.41,-48.61 168.66,-37.72 173.94,-28.52"/><polygon fill="#191970" stroke="#191970" points="177.03 -30.17 178.98 -19.75 170.96 -26.68 177.03 -30.17"/></g><g id="node6" class="node"><title>Node6</title><g id="a_node6"><a><polygon fill="none" stroke="#bfbfbf" points="224.5 -.5 224.5 -19.5 275.5 -19.5 275.5 -.5 224.5 -.5"/><text x="250" y="-7.5" font-family="Helvetica,sans-Serif" font-size="10" text-anchor="middle">memory</text></a></g></g><g id="edge5" class="edge"><title>Node2-&gt;Node6</title><path fill="none" stroke="#191970" d="M168.58,-56.32C184,-47.74 207.81,-34.49 225.71,-24.52"/><polygon fill="#191970" stroke="#191970" points="227.42 -27.58 234.45 -19.65 224.01 -21.46 227.42 -27.58"/></g></g></svg>