<svg xmlns="http://www.w3.org/2000/svg" xmlns:xlink="http://www.w3.org/1999/xlink" width="227pt" height="95pt" viewBox="0 0 226.5 95"><g id="graph0" class="graph" transform="scale(1 1) rotate(0) translate(4 91)"><title>includes/spic-prj-api/Sprite.hpp</title><g id="node1" class="node"><title>Node1</title><g id="a_node1"><a><polygon fill="#bfbfbf" stroke="#000" points="79.5 -56.5 79.5 -86.5 182.5 -86.5 182.5 -56.5 79.5 -56.5"/><text x="87.5" y="-74.5" font-family="Helvetica,sans-Serif" font-size="10" text-anchor="start">includes/spic-prj-api</text><text x="131" y="-63.5" font-family="Helvetica,sans-Serif" font-size="10" text-anchor="middle">/Sprite.hpp</text></a></g></g><g id="node2" class="node"><title>Node2</title><g id="a_node2"><a target="_top" xlink:href="Component_8hpp.html"><polygon fill="none" stroke="#000" points="0 -.5 0 -19.5 84 -19.5 84 -.5 0 -.5"/><text x="42" y="-7.5" font-family="Helvetica,sans-Serif" font-size="10" text-anchor="middle">Component.hpp</text></a></g></g><g id="edge1" class="edge"><title>Node1-&gt;Node2</title><path fill="none" stroke="#191970" d="M109.91,-56.4C95.91,-47.04 77.59,-34.79 63.51,-25.38"/><polygon fill="#191970" stroke="#191970" points="65.21 -22.31 54.95 -19.66 61.32 -28.13 65.21 -22.31"/></g><g id="node3" class="node"><title>Node3</title><g id="a_node3"><a target="_top" xlink:href="Color_8hpp.html"><polygon fill="none" stroke="#000" points="102.5 -.5 102.5 -19.5 159.5 -19.5 159.5 -.5 102.5 -.5"/><text x="131" y="-7.5" font-family="Helvetica,sans-Serif" font-size="10" text-anchor="middle">Color.hpp</text></a></g></g><g id="edge2" class="edge"><title>Node1-&gt;Node3</title><path fill="none" stroke="#191970" d="M131,-56.4C131,-48.47 131,-38.46 131,-29.86"/><polygon fill="#191970" stroke="#191970" points="134.5 -29.66 131 -19.66 127.5 -29.66 134.5 -29.66"/></g><g id="node4" class="node"><title>Node4</title><g id="a_node4"><a><polygon fill="none" stroke="#bfbfbf" points="177.5 -.5 177.5 -19.5 218.5 -19.5 218.5 -.5 177.5 -.5"/><text x="198" y="-7.5" font-family="Helvetica,sans-Serif" font-size="10" text-anchor="middle">string</text></a></g></g><g id="edge3" class="edge"><title>Node1-&gt;Node4</title><path fill="none" stroke="#191970" d="M146.88,-56.4C157.02,-47.4 170.16,-35.72 180.59,-26.47"/><polygon fill="#191970" stroke="#191970" points="183.1 -28.92 188.25 -19.66 178.45 -23.68 183.1 -28.92"/></g></g></svg>