<svg xmlns="http://www.w3.org/2000/svg" xmlns:xlink="http://www.w3.org/1999/xlink" width="128" height="193pt" viewBox="0 0 96 193"><g id="graph0" class="graph" transform="scale(1 1) rotate(0) translate(4 189)"><title>spic::Transform</title><g id="node1" class="node"><title>Node1</title><g id="a_node1"><a xlink:title="Instances of this class represent specific 2D transformations. @spicapi."><polygon fill="#bfbfbf" stroke="#000" points="0 -.5 0 -68.5 88 -68.5 88 -.5 0 -.5"/><text x="44" y="-56.5" font-family="Helvetica,sans-Serif" font-size="10" text-anchor="middle">spic::Transform</text><polyline fill="none" stroke="#000" points="0 -49.5 88 -49.5"/><text x="8" y="-37.5" font-family="Helvetica,sans-Serif" font-size="10" text-anchor="start">+ double rotation</text><text x="8" y="-26.5" font-family="Helvetica,sans-Serif" font-size="10" text-anchor="start">+ double scale</text><polyline fill="none" stroke="#000" points="0 -19.5 88 -19.5"/></a></g></g><g id="node2" class="node"><title>Node2</title><g id="a_node2"><a target="_top" xlink:href="structspic_1_1Point.html" xlink:title="Struct representing both a 2D point and a 2D vector. @spicapi."><polygon fill="none" stroke="#000" points="13 -116.5 13 -184.5 75 -184.5 75 -116.5 13 -116.5"/><text x="44" y="-172.5" font-family="Helvetica,sans-Serif" font-size="10" text-anchor="middle">spic::Point</text><polyline fill="none" stroke="#000" points="13 -165.5 75 -165.5"/><text x="21" y="-153.5" font-family="Helvetica,sans-Serif" font-size="10" text-anchor="start">+ double x</text><text x="21" y="-142.5" font-family="Helvetica,sans-Serif" font-size="10" text-anchor="start">+ double y</text><polyline fill="none" stroke="#000" points="13 -135.5 75 -135.5"/></a></g></g><g id="edge1" class="edge"><title>Node2-&gt;Node1</title><path fill="none" stroke="#404040" d="M44,-116.22C44,-105.1 44,-92.51 44,-80.64"/><polygon fill="none" stroke="#404040" points="44 -80.62 40 -74.62 44 -68.62 48 -74.62 44 -80.62"/><text x="65.5" y="-90" font-family="Helvetica,sans-Serif" font-size="10" text-anchor="middle">+position</text></g></g></svg>