<svg xmlns="http://www.w3.org/2000/svg" xmlns:xlink="http://www.w3.org/1999/xlink" width="464" height="276" viewBox="0 0 347.5 207"><g id="graph0" class="graph" transform="scale(1 1) rotate(0) translate(4 203)"><title>includes/spic-prj-api/Text.hpp</title><g id="node1" class="node"><title>Node1</title><g id="a_node1"><a><polygon fill="#bfbfbf" stroke="#000" points="202.5 -168.5 202.5 -198.5 305.5 -198.5 305.5 -168.5 202.5 -168.5"/><text x="210.5" y="-186.5" font-family="Helvetica,sans-Serif" font-size="10" text-anchor="start">includes/spic-prj-api</text><text x="254" y="-175.5" font-family="Helvetica,sans-Serif" font-size="10" text-anchor="middle">/Text.hpp</text></a></g></g><g id="node2" class="node"><title>Node2</title><g id="a_node2"><a target="_top" xlink:href="UIObject_8hpp.html"><polygon fill="none" stroke="#000" points="148 -112.5 148 -131.5 222 -131.5 222 -112.5 148 -112.5"/><text x="185" y="-119.5" font-family="Helvetica,sans-Serif" font-size="10" text-anchor="middle">UIObject.hpp</text></a></g></g><g id="edge1" class="edge"><title>Node1-&gt;Node2</title><path fill="none" stroke="#191970" d="M237.65,-168.4C227.1,-159.31 213.4,-147.49 202.62,-138.19"/><polygon fill="#191970" stroke="#191970" points="204.9 -135.54 195.04 -131.66 200.33 -140.84 204.9 -135.54"/></g><g id="node5" class="node"><title>Node5</title><g id="a_node5"><a><polygon fill="none" stroke="#bfbfbf" points="233.5 -.5 233.5 -19.5 274.5 -19.5 274.5 -.5 233.5 -.5"/><text x="254" y="-7.5" font-family="Helvetica,sans-Serif" font-size="10" text-anchor="middle">string</text></a></g></g><g id="edge8" class="edge"><title>Node1-&gt;Node5</title><path fill="none" stroke="#191970" d="M254,-168.47C254,-137.7 254,-64.33 254,-29.7"/><polygon fill="#191970" stroke="#191970" points="257.5 -29.56 254 -19.56 250.5 -29.56 257.5 -29.56"/></g><g id="node8" class="node"><title>Node8</title><g id="a_node8"><a target="_top" xlink:href="Color_8hpp.html"><polygon fill="none" stroke="#000" points="282.5 -112.5 282.5 -131.5 339.5 -131.5 339.5 -112.5 282.5 -112.5"/><text x="311" y="-119.5" font-family="Helvetica,sans-Serif" font-size="10" text-anchor="middle">Color.hpp</text></a></g></g><g id="edge7" class="edge"><title>Node1-&gt;Node8</title><path fill="none" stroke="#191970" d="M267.51,-168.4C275.96,-159.58 286.88,-148.18 295.66,-139.02"/><polygon fill="#191970" stroke="#191970" points="298.32 -141.3 302.71 -131.66 293.26 -136.46 298.32 -141.3"/></g><g id="node3" class="node"><title>Node3</title><g id="a_node3"><a target="_top" xlink:href="GameObject_8hpp.html"><polygon fill="none" stroke="#000" points="136.5 -56.5 136.5 -75.5 225.5 -75.5 225.5 -56.5 136.5 -56.5"/><text x="181" y="-63.5" font-family="Helvetica,sans-Serif" font-size="10" text-anchor="middle">GameObject.hpp</text></a></g></g><g id="edge2" class="edge"><title>Node2-&gt;Node3</title><path fill="none" stroke="#191970" d="M184.34,-112.08C183.82,-105.01 183.06,-94.86 182.41,-85.99"/><polygon fill="#191970" stroke="#191970" points="185.88 -85.47 181.65 -75.75 178.9 -85.98 185.88 -85.47"/></g><g id="node4" class="node"><title>Node4</title><g id="a_node4"><a target="_top" xlink:href="Component_8hpp.html"><polygon fill="none" stroke="#000" points="0 -.5 0 -19.5 84 -19.5 84 -.5 0 -.5"/><text x="42" y="-7.5" font-family="Helvetica,sans-Serif" font-size="10" text-anchor="middle">Component.hpp</text></a></g></g><g id="edge3" class="edge"><title>Node3-&gt;Node4</title><path fill="none" stroke="#191970" d="M158.98,-56.44C135.9,-47.48 99.44,-33.31 73.36,-23.18"/><polygon fill="#191970" stroke="#191970" points="74.51 -19.88 63.92 -19.52 71.98 -26.4 74.51 -19.88"/></g><g id="edge4" class="edge"><title>Node3-&gt;Node5</title><path fill="none" stroke="#191970" d="M192.73,-56.32C203.84,-48.11 220.74,-35.6 233.98,-25.81"/><polygon fill="#191970" stroke="#191970" points="236.1 -28.59 242.06 -19.83 231.94 -22.97 236.1 -28.59"/></g><g id="node6" class="node"><title>Node6</title><g id="a_node6"><a><polygon fill="none" stroke="#bfbfbf" points="102 -.5 102 -19.5 146 -19.5 146 -.5 102 -.5"/><text x="124" y="-7.5" font-family="Helvetica,sans-Serif" font-size="10" text-anchor="middle">vector</text></a></g></g><g id="edge5" class="edge"><title>Node3-&gt;Node6</title><path fill="none" stroke="#191970" d="M171.84,-56.32C163.5,-48.42 150.97,-36.55 140.82,-26.94"/><polygon fill="#191970" stroke="#191970" points="142.99 -24.17 133.32 -19.83 138.18 -29.25 142.99 -24.17"/></g><g id="node7" class="node"><title>Node7</title><g id="a_node7"><a><polygon fill="none" stroke="#bfbfbf" points="164.5 -.5 164.5 -19.5 215.5 -19.5 215.5 -.5 164.5 -.5"/><text x="190" y="-7.5" font-family="Helvetica,sans-Serif" font-size="10" text-anchor="middle">memory</text></a></g></g><g id="edge6" class="edge"><title>Node3-&gt;Node7</title><path fill="none" stroke="#191970" d="M182.49,-56.08C183.68,-48.93 185.39,-38.64 186.88,-29.69"/><polygon fill="#191970" stroke="#191970" points="190.35 -30.19 188.54 -19.75 183.45 -29.04 190.35 -30.19"/></g></g></svg>