<?xml version="1.0" encoding="UTF-8" standalone="no"?>
<!DOCTYPE svg PUBLIC "-//W3C//DTD SVG 1.1//EN"
 "http://www.w3.org/Graphics/SVG/1.1/DTD/svg11.dtd">
<!-- Generated by graphviz version 2.44.0 ()
 -->
<!-- Title: includes/spic&#45;prj&#45;api/Text.hpp Pages: 1 -->
<svg width="348pt" height="207pt"
 viewBox="0.00 0.00 347.50 207.00" xmlns="http://www.w3.org/2000/svg" xmlns:xlink="http://www.w3.org/1999/xlink">
<g id="graph0" class="graph" transform="scale(1 1) rotate(0) translate(4 203)">
<title>includes/spic&#45;prj&#45;api/Text.hpp</title>
<!-- Node1 -->
<g id="node1" class="node">
<title>Node1</title>
<g id="a_node1"><a xlink:title=" ">
<polygon fill="#bfbfbf" stroke="black" points="202.5,-168.5 202.5,-198.5 305.5,-198.5 305.5,-168.5 202.5,-168.5"/>
<text text-anchor="start" x="210.5" y="-186.5" font-family="Helvetica,sans-Serif" font-size="10.00">includes/spic&#45;prj&#45;api</text>
<text text-anchor="middle" x="254" y="-175.5" font-family="Helvetica,sans-Serif" font-size="10.00">/Text.hpp</text>
</a>
</g>
</g>
<!-- Node2 -->
<g id="node2" class="node">
<title>Node2</title>
<g id="a_node2"><a xlink:href="UIObject_8hpp.html" target="_top" xlink:title=" ">
<polygon fill="none" stroke="black" points="148,-112.5 148,-131.5 222,-131.5 222,-112.5 148,-112.5"/>
<text text-anchor="middle" x="185" y="-119.5" font-family="Helvetica,sans-Serif" font-size="10.00">UIObject.hpp</text>
</a>
</g>
</g>
<!-- Node1&#45;&gt;Node2 -->
<g id="edge1" class="edge">
<title>Node1&#45;&gt;Node2</title>
<path fill="none" stroke="midnightblue" d="M237.65,-168.4C227.1,-159.31 213.4,-147.49 202.62,-138.19"/>
<polygon fill="midnightblue" stroke="midnightblue" points="204.9,-135.54 195.04,-131.66 200.33,-140.84 204.9,-135.54"/>
</g>
<!-- Node5 -->
<g id="node5" class="node">
<title>Node5</title>
<g id="a_node5"><a xlink:title=" ">
<polygon fill="none" stroke="#bfbfbf" points="233.5,-0.5 233.5,-19.5 274.5,-19.5 274.5,-0.5 233.5,-0.5"/>
<text text-anchor="middle" x="254" y="-7.5" font-family="Helvetica,sans-Serif" font-size="10.00">string</text>
</a>
</g>
</g>
<!-- Node1&#45;&gt;Node5 -->
<g id="edge8" class="edge">
<title>Node1&#45;&gt;Node5</title>
<path fill="none" stroke="midnightblue" d="M254,-168.47C254,-137.7 254,-64.33 254,-29.7"/>
<polygon fill="midnightblue" stroke="midnightblue" points="257.5,-29.56 254,-19.56 250.5,-29.56 257.5,-29.56"/>
</g>
<!-- Node8 -->
<g id="node8" class="node">
<title>Node8</title>
<g id="a_node8"><a xlink:href="Color_8hpp.html" target="_top" xlink:title=" ">
<polygon fill="none" stroke="black" points="282.5,-112.5 282.5,-131.5 339.5,-131.5 339.5,-112.5 282.5,-112.5"/>
<text text-anchor="middle" x="311" y="-119.5" font-family="Helvetica,sans-Serif" font-size="10.00">Color.hpp</text>
</a>
</g>
</g>
<!-- Node1&#45;&gt;Node8 -->
<g id="edge7" class="edge">
<title>Node1&#45;&gt;Node8</title>
<path fill="none" stroke="midnightblue" d="M267.51,-168.4C275.96,-159.58 286.88,-148.18 295.66,-139.02"/>
<polygon fill="midnightblue" stroke="midnightblue" points="298.32,-141.3 302.71,-131.66 293.26,-136.46 298.32,-141.3"/>
</g>
<!-- Node3 -->
<g id="node3" class="node">
<title>Node3</title>
<g id="a_node3"><a xlink:href="GameObject_8hpp.html" target="_top" xlink:title=" ">
<polygon fill="none" stroke="black" points="136.5,-56.5 136.5,-75.5 225.5,-75.5 225.5,-56.5 136.5,-56.5"/>
<text text-anchor="middle" x="181" y="-63.5" font-family="Helvetica,sans-Serif" font-size="10.00">GameObject.hpp</text>
</a>
</g>
</g>
<!-- Node2&#45;&gt;Node3 -->
<g id="edge2" class="edge">
<title>Node2&#45;&gt;Node3</title>
<path fill="none" stroke="midnightblue" d="M184.34,-112.08C183.82,-105.01 183.06,-94.86 182.41,-85.99"/>
<polygon fill="midnightblue" stroke="midnightblue" points="185.88,-85.47 181.65,-75.75 178.9,-85.98 185.88,-85.47"/>
</g>
<!-- Node4 -->
<g id="node4" class="node">
<title>Node4</title>
<g id="a_node4"><a xlink:href="Component_8hpp.html" target="_top" xlink:title=" ">
<polygon fill="none" stroke="black" points="0,-0.5 0,-19.5 84,-19.5 84,-0.5 0,-0.5"/>
<text text-anchor="middle" x="42" y="-7.5" font-family="Helvetica,sans-Serif" font-size="10.00">Component.hpp</text>
</a>
</g>
</g>
<!-- Node3&#45;&gt;Node4 -->
<g id="edge3" class="edge">
<title>Node3&#45;&gt;Node4</title>
<path fill="none" stroke="midnightblue" d="M158.98,-56.44C135.9,-47.48 99.44,-33.31 73.36,-23.18"/>
<polygon fill="midnightblue" stroke="midnightblue" points="74.51,-19.88 63.92,-19.52 71.98,-26.4 74.51,-19.88"/>
</g>
<!-- Node3&#45;&gt;Node5 -->
<g id="edge4" class="edge">
<title>Node3&#45;&gt;Node5</title>
<path fill="none" stroke="midnightblue" d="M192.73,-56.32C203.84,-48.11 220.74,-35.6 233.98,-25.81"/>
<polygon fill="midnightblue" stroke="midnightblue" points="236.1,-28.59 242.06,-19.83 231.94,-22.97 236.1,-28.59"/>
</g>
<!-- Node6 -->
<g id="node6" class="node">
<title>Node6</title>
<g id="a_node6"><a xlink:title=" ">
<polygon fill="none" stroke="#bfbfbf" points="102,-0.5 102,-19.5 146,-19.5 146,-0.5 102,-0.5"/>
<text text-anchor="middle" x="124" y="-7.5" font-family="Helvetica,sans-Serif" font-size="10.00">vector</text>
</a>
</g>
</g>
<!-- Node3&#45;&gt;Node6 -->
<g id="edge5" class="edge">
<title>Node3&#45;&gt;Node6</title>
<path fill="none" stroke="midnightblue" d="M171.84,-56.32C163.5,-48.42 150.97,-36.55 140.82,-26.94"/>
<polygon fill="midnightblue" stroke="midnightblue" points="142.99,-24.17 133.32,-19.83 138.18,-29.25 142.99,-24.17"/>
</g>
<!-- Node7 -->
<g id="node7" class="node">
<title>Node7</title>
<g id="a_node7"><a xlink:title=" ">
<polygon fill="none" stroke="#bfbfbf" points="164.5,-0.5 164.5,-19.5 215.5,-19.5 215.5,-0.5 164.5,-0.5"/>
<text text-anchor="middle" x="190" y="-7.5" font-family="Helvetica,sans-Serif" font-size="10.00">memory</text>
</a>
</g>
</g>
<!-- Node3&#45;&gt;Node7 -->
<g id="edge6" class="edge">
<title>Node3&#45;&gt;Node7</title>
<path fill="none" stroke="midnightblue" d="M182.49,-56.08C183.68,-48.93 185.39,-38.64 186.88,-29.69"/>
<polygon fill="midnightblue" stroke="midnightblue" points="190.35,-30.19 188.54,-19.75 183.45,-29.04 190.35,-30.19"/>
</g>
</g>
</svg>
