<svg xmlns="http://www.w3.org/2000/svg" xmlns:xlink="http://www.w3.org/1999/xlink" width="232pt" height="106pt" viewBox="0 0 232 106"><g id="graph0" class="graph" transform="scale(1 1) rotate(0) translate(4 102)"><title>includes/spic-prj-api/UIObject.hpp</title><g id="node1" class="node"><title>Node1</title><g id="a_node1"><a><polygon fill="#bfbfbf" stroke="#000" points="60 -67.5 60 -97.5 163 -97.5 163 -67.5 60 -67.5"/><text x="68" y="-85.5" font-family="Helvetica,sans-Serif" font-size="10" text-anchor="start">includes/spic-prj-api</text><text x="111.5" y="-74.5" font-family="Helvetica,sans-Serif" font-size="10" text-anchor="middle">/UIObject.hpp</text></a></g></g><g id="node2" class="node"><title>Node2</title><g id="a_node2"><a target="_top" xlink:href="Button_8hpp.html"><polygon fill="none" stroke="#000" points="0 -.5 0 -30.5 103 -30.5 103 -.5 0 -.5"/><text x="8" y="-18.5" font-family="Helvetica,sans-Serif" font-size="10" text-anchor="start">includes/spic-prj-api</text><text x="51.5" y="-7.5" font-family="Helvetica,sans-Serif" font-size="10" text-anchor="middle">/Button.hpp</text></a></g></g><g id="edge1" class="edge"><title>Node1-&gt;Node2</title><path fill="none" stroke="#191970" d="M91.68,-60.02C82.74,-50.34 72.43,-39.17 64.49,-30.58"/><polygon fill="#191970" stroke="#191970" points="89.13 -62.42 98.48 -67.4 94.27 -57.67 89.13 -62.42"/></g><g id="node3" class="node"><title>Node3</title><g id="a_node3"><a target="_top" xlink:href="Text_8hpp.html"><polygon fill="none" stroke="#000" points="121 -.5 121 -30.5 224 -30.5 224 -.5 121 -.5"/><text x="129" y="-18.5" font-family="Helvetica,sans-Serif" font-size="10" text-anchor="start">includes/spic-prj-api</text><text x="172.5" y="-7.5" font-family="Helvetica,sans-Serif" font-size="10" text-anchor="middle">/Text.hpp</text></a></g></g><g id="edge2" class="edge"><title>Node1-&gt;Node3</title><path fill="none" stroke="#191970" d="M131.65,-60.02C140.74,-50.34 151.22,-39.17 159.29,-30.58"/><polygon fill="#191970" stroke="#191970" points="129.03 -57.71 124.74 -67.4 134.13 -62.5 129.03 -57.71"/></g></g></svg>